<?xml version="1.0" standalone="no"?>
<!DOCTYPE svg PUBLIC "-//W3C//DTD SVG 20010904//EN"
 "http://www.w3.org/TR/2001/REC-SVG-20010904/DTD/svg10.dtd">
<svg version="1.0" xmlns="http://www.w3.org/2000/svg"
 width="1080.000000pt" height="734.000000pt" viewBox="0 0 1080.000000 734.000000"
 preserveAspectRatio="xMidYMid meet">

<g transform="translate(0.000000,734.000000) scale(0.100000,-0.100000)"
fill="#000000" stroke="none">
<path d="M0 3670 l0 -3670 5400 0 5400 0 0 3670 0 3670 -5400 0 -5400 0 0
-3670z m6421 3479 c11 -11 19 -22 17 -25 -9 -8 -68 21 -68 33 0 20 28 15 51
-8z m89 11 c0 -5 -9 -10 -21 -10 -11 0 -17 5 -14 10 3 6 13 10 21 10 8 0 14
-4 14 -10z m35 -6 c-9 -9 -19 -13 -23 -10 -3 4 0 11 8 16 24 15 33 11 15 -6z
m-224 -25 c-12 -10 -27 -19 -34 -22 -6 -2 -8 -8 -4 -13 4 -5 12 -3 16 5 7 10
10 9 14 -3 4 -9 2 -16 -4 -16 -6 0 -8 -4 -5 -9 4 -5 -5 -4 -19 2 -14 7 -23 18
-20 25 3 8 5 21 5 31 0 13 9 17 36 17 36 0 36 0 15 -17z m-101 -9 c0 -5 7 -10
15 -10 8 0 15 -4 15 -8 0 -13 -34 -11 -42 2 -11 15 -10 26 2 26 6 0 10 -4 10
-10z m-28 -56 c-5 -27 -25 -33 -20 -6 1 9 -1 23 -5 30 -5 6 -5 17 -2 23 11 17
32 -21 27 -47z m-43 19 c0 -25 -1 -26 -9 -8 -12 27 -12 35 0 35 6 0 10 -12 9
-27z m337 -1 c1 -7 0 -8 -2 -3 -3 6 -12 7 -20 4 -8 -3 -14 0 -14 7 0 15 33 9
36 -8z m-368 -11 c3 -8 -1 -12 -9 -9 -7 2 -15 10 -17 17 -3 8 1 12 9 9 7 -2
15 -10 17 -17z m337 -9 c6 1 13 -11 16 -28 5 -21 7 -23 8 -8 0 12 8 27 16 34
13 10 15 9 15 -9 0 -31 -19 -63 -32 -55 -8 5 -9 1 -3 -12 4 -10 8 -27 9 -36 0
-10 6 -18 13 -18 16 0 17 -22 1 -38 -8 -8 -8 -15 2 -27 7 -8 10 -19 6 -22 -4
-4 -11 -2 -15 6 -6 10 -10 9 -15 -5 -4 -10 -2 -21 5 -24 8 -6 8 -13 0 -27 -5
-11 -8 -23 -4 -26 10 -11 4 -100 -8 -108 -7 -4 -9 -19 -7 -34 4 -18 2 -25 -7
-21 -16 6 -27 -31 -11 -39 8 -3 8 -7 -2 -11 -6 -3 -10 -10 -6 -15 3 -5 -2 -9
-10 -9 -9 0 -16 -6 -16 -14 0 -8 -6 -17 -12 -20 -9 -3 -8 -8 5 -16 23 -15 22
-27 -4 -35 -11 -4 -18 -12 -16 -18 5 -17 -40 -58 -56 -51 -17 6 -32 -12 -17
-21 5 -3 10 -15 10 -26 0 -19 1 -19 16 -5 8 9 22 16 30 16 11 0 12 -4 3 -19
-13 -19 -61 -20 -84 -1 -24 20 -22 -2 2 -26 25 -25 25 -26 7 -46 -19 -21 -19
-21 4 -16 28 8 29 -13 1 -30 -13 -8 -35 -11 -63 -7 -41 7 -43 5 -72 -36 -22
-32 -30 -38 -32 -24 -2 10 2 21 9 26 11 7 11 11 1 21 -10 10 -15 8 -28 -10
-17 -24 -36 -30 -28 -8 3 8 1 17 -4 20 -6 3 -12 -1 -16 -9 -8 -21 -26 -19 -26
3 -1 15 -2 15 -15 -2 -11 -14 -15 -16 -15 -5 0 12 -2 12 -9 0 -10 -16 -31 -6
-31 15 0 8 -4 14 -9 14 -11 0 -21 36 -13 45 3 3 8 18 10 32 2 15 8 35 13 45 7
14 6 18 -5 18 -8 0 -17 -6 -19 -12 -3 -7 -3 2 0 21 4 24 3 32 -5 27 -7 -4 -12
-1 -12 9 0 10 5 13 12 9 7 -5 8 -3 3 5 -5 9 -11 9 -17 3 -13 -13 -61 16 -55
32 3 7 -3 28 -13 49 -10 20 -15 36 -11 35 19 -2 21 4 6 18 -9 10 -30 17 -46
18 -16 1 -29 4 -29 7 0 10 -51 30 -61 23 -6 -3 -16 -1 -24 6 -7 6 -32 12 -54
13 -23 1 -41 6 -41 12 0 5 -4 4 -8 -2 -6 -9 -17 -10 -41 -3 -26 7 -41 5 -71
-10 -21 -11 -40 -17 -43 -14 -3 3 -10 -4 -17 -15 -6 -12 -20 -21 -30 -21 -11
0 -20 -4 -20 -10 0 -5 -7 -10 -15 -10 -8 0 -15 -4 -15 -10 0 -5 -7 -10 -15
-10 -8 0 -14 -5 -12 -12 1 -6 -14 -20 -33 -30 -19 -10 -45 -33 -57 -51 -13
-18 -23 -25 -23 -17 -1 12 -3 11 -11 -2 -5 -10 -16 -18 -23 -18 -16 0 -96 -75
-96 -90 0 -5 -7 -10 -15 -10 -9 0 -18 -7 -21 -15 -4 -9 -14 -14 -23 -13 -9 2
-15 -3 -13 -11 2 -9 -3 -11 -13 -7 -21 8 -42 -3 -26 -13 7 -4 -4 -15 -26 -27
-128 -69 -133 -71 -143 -54 -8 12 -10 10 -10 -9 0 -17 -4 -22 -16 -17 -12 4
-15 2 -10 -9 4 -11 -2 -15 -25 -15 -18 0 -28 -4 -24 -10 3 -5 1 -10 -4 -10 -6
0 -21 -16 -33 -35 -13 -19 -29 -35 -35 -35 -7 0 -13 -7 -13 -15 0 -8 -4 -15
-9 -15 -5 0 -23 -21 -40 -47 -17 -25 -31 -41 -31 -34 0 16 25 53 90 136 30 38
58 74 62 80 5 5 24 28 43 50 19 22 35 44 35 49 0 4 7 6 15 2 8 -3 14 -2 14 2
-3 20 3 23 18 11 15 -12 16 -12 10 4 -5 13 -1 17 14 17 27 0 44 19 44 50 0 18
5 25 20 25 11 0 21 8 23 18 2 9 12 17 22 17 10 0 22 9 25 20 4 11 11 18 16 14
5 -3 6 -11 2 -17 -4 -7 1 -5 11 3 11 8 14 16 7 18 -16 5 -13 22 4 22 8 0 16
-6 16 -12 1 -7 4 0 8 17 4 17 16 35 31 42 14 7 25 16 25 20 2 27 18 51 31 46
17 -6 19 23 2 31 -7 3 -2 4 12 3 19 -1 28 5 39 28 7 17 15 25 18 18 3 -10 8
-9 19 2 9 8 13 19 10 24 -3 5 2 15 11 22 12 10 14 10 9 2 -8 -15 -5 -16 18 -7
11 4 14 13 10 29 -5 20 -3 23 14 18 17 -4 19 -13 18 -61 0 -32 -5 -60 -10 -63
-4 -4 -3 -10 3 -13 6 -4 11 -2 11 3 0 6 7 11 16 11 10 0 14 6 10 15 -3 10 1
15 12 15 10 0 27 7 39 15 18 13 88 35 160 52 13 3 38 -4 59 -16 31 -19 52 -22
132 -22 57 0 101 -4 109 -11 9 -7 65 -12 144 -14 114 -2 129 0 130 15 0 10 2
11 6 4 2 -7 9 -13 15 -13 6 0 17 -8 25 -17 14 -17 14 -17 9 -1 -3 10 -1 20 5
24 6 3 8 12 5 20 -5 12 18 20 47 15 4 0 7 4 7 9 0 6 -8 10 -17 8 -12 -2 -19 7
-25 36 -10 48 -23 64 -15 19 8 -39 -10 -45 -19 -8 -3 14 -11 25 -18 24 -29 -4
-37 2 -31 20 3 11 0 23 -7 27 -6 4 -14 2 -16 -4 -2 -7 -8 -9 -14 -6 -7 4 -6 9
1 14 22 13 2 37 -27 32 -26 -3 -27 -1 -28 37 -1 23 -7 48 -14 56 -10 13 -9 15
9 15 30 0 36 -3 33 -19 -2 -7 1 -10 7 -6 15 9 14 42 -1 49 -7 3 -3 3 10 0 15
-4 22 -1 22 9 0 11 10 15 36 12 24 -1 37 2 41 12 3 8 11 12 18 9 18 -7 27 5
15 19 -8 9 -6 14 5 19 9 3 14 10 11 15 -3 5 1 14 9 21 12 10 15 10 15 -3 0
-19 18 -26 59 -21 29 3 32 2 27 -19 -3 -12 -3 -16 0 -9 9 18 34 15 35 -5 0
-12 2 -13 6 -5 3 7 -3 22 -13 33 -19 21 -12 38 9 21 10 -8 16 -6 25 9 11 17
14 18 35 5 12 -8 27 -14 32 -14z m-306 -24 c16 -10 17 -14 6 -25 -18 -17 -25
-17 -25 2 0 8 -5 15 -11 15 -5 0 -7 5 -4 10 8 13 11 13 34 -2z m-129 -18 c0
-5 -4 -10 -10 -10 -5 0 -10 5 -10 10 0 6 5 10 10 10 6 0 10 -4 10 -10z m85 0
c3 -5 1 -10 -4 -10 -6 0 -11 5 -11 10 0 6 2 10 4 10 3 0 8 -4 11 -10z m-25
-25 c0 -8 -7 -15 -15 -15 -13 0 -14 3 -3 15 16 18 18 18 18 0z m-75 -134 c-3
-6 -11 -8 -17 -5 -6 4 -5 9 3 15 16 10 23 4 14 -10z m45 -66 c0 -8 -9 -15 -20
-15 -13 0 -18 5 -14 15 4 8 12 15 20 15 8 0 14 -7 14 -15z m-917 -20 c-3 -9
-8 -14 -10 -11 -3 3 -2 9 2 15 9 16 15 13 8 -4z m212 -95 c3 -5 1 -10 -4 -10
-6 0 -11 5 -11 10 0 6 2 10 4 10 3 0 8 -4 11 -10z m-335 -79 c-5 -11 -15 -23
-22 -27 -7 -5 -8 -2 -3 7 21 37 44 55 25 20z m-61 -77 c-18 -19 -35 -32 -37
-29 -3 2 10 16 27 31 17 14 28 31 24 36 -4 7 -1 8 6 3 9 -5 4 -17 -20 -41z
m-39 -48 c0 -2 -8 -10 -17 -17 -16 -13 -17 -12 -4 4 13 16 21 21 21 13z m-48
-58 c-7 -7 -12 -8 -12 -2 0 14 12 26 19 19 2 -3 -1 -11 -7 -17z m-33 -45 c-13
-16 -25 -30 -26 -32 -2 -2 -3 1 -3 7 0 13 35 52 47 52 3 0 -4 -12 -18 -27z
m1559 5 c-2 -6 -10 -14 -16 -16 -7 -2 -10 2 -6 12 7 18 28 22 22 4z m-3605
-45 c-13 -2 -33 -2 -45 0 -13 2 -3 4 22 4 25 0 35 -2 23 -4z m1999 -20 c-14
-25 -52 -59 -52 -45 0 6 5 14 11 18 8 4 7 9 -2 16 -11 8 -10 9 3 4 11 -3 22 2
29 15 6 11 13 18 16 16 2 -3 0 -14 -5 -24z m-1865 11 c-3 -3 -12 -4 -19 -1 -8
3 -5 6 6 6 11 1 17 -2 13 -5z m86 -1 c-7 -2 -19 -2 -25 0 -7 3 -2 5 12 5 14 0
19 -2 13 -5z m-728 -12 c-6 -4 -26 -11 -45 -14 l-35 -6 30 14 c34 16 64 20 50
6z m782 3 c-3 -3 -12 -4 -19 -1 -8 3 -5 6 6 6 11 1 17 -2 13 -5z m113 -24 c20
-6 21 -8 5 -8 -11 0 -29 3 -40 8 -25 11 1 11 35 0z m-1000 -10 c-8 -5 -22 -10
-30 -10 -8 0 -32 -9 -53 -20 -42 -23 -68 -27 -50 -9 13 13 110 48 133 49 13 0
13 -1 0 -10z m2695 -10 c3 -5 1 -10 -4 -10 -6 0 -11 5 -11 10 0 6 2 10 4 10 3
0 8 -4 11 -10z m-1530 -30 c3 -5 1 -10 -4 -10 -6 0 -11 5 -11 10 0 6 2 10 4
10 3 0 8 -4 11 -10z m-1344 -43 c-13 -12 -20 -15 -15 -7 12 22 28 39 33 34 3
-3 -6 -15 -18 -27z m4636 11 c-3 -8 -6 -5 -6 6 -1 11 2 17 5 13 3 -3 4 -12 1
-19z m-417 -28 c0 -5 -5 -10 -11 -10 -5 0 -7 5 -4 10 3 6 8 10 11 10 2 0 4 -4
4 -10z m104 -15 c-4 -8 -8 -15 -10 -15 -2 0 -4 7 -4 15 0 8 4 15 10 15 5 0 7
-7 4 -15z m303 -32 c-3 -10 -5 -2 -5 17 0 19 2 27 5 18 2 -10 2 -26 0 -35z
m-1939 7 c-12 -16 -26 -30 -32 -30 -5 0 3 14 19 30 16 17 30 30 32 30 2 0 -6
-13 -19 -30z m-1027 -7 c13 -17 13 -17 -6 -3 -11 8 -22 16 -24 17 -2 2 0 3 6
3 6 0 17 -8 24 -17z m959 -13 c-26 -36 -42 -48 -33 -23 6 17 41 53 50 53 2 0
-5 -13 -17 -30z m1311 -54 c-32 -33 -103 -76 -124 -76 -7 1 2 9 19 18 39 22
69 44 77 58 9 15 -60 1 -76 -15 -6 -6 -16 -11 -21 -11 -18 0 48 49 65 50 9 0
22 6 29 14 16 20 54 24 58 7 2 -7 -10 -28 -27 -45z m686 12 c-3 -7 -5 -2 -5
12 0 14 2 19 5 13 2 -7 2 -19 0 -25z m13 -28 c0 -5 -5 -10 -11 -10 -5 0 -7 5
-4 10 3 6 8 10 11 10 2 0 4 -4 4 -10z m-2320 -30 c-20 -13 -33 -13 -25 0 3 6
14 10 23 10 15 0 15 -2 2 -10z m242 -32 c-6 -6 -7 0 -4 19 5 21 7 23 10 9 2
-10 0 -22 -6 -28z m2055 10 c-3 -8 -6 -5 -6 6 -1 11 2 17 5 13 3 -3 4 -12 1
-19z m5 -98 c-9 -12 -18 24 -13 53 l5 32 6 -40 c3 -22 4 -42 2 -45z m-875 64
c-3 -3 -12 -4 -19 -1 -8 3 -5 6 6 6 11 1 17 -2 13 -5z m-562 -54 c-3 -5 -11
-10 -16 -10 -6 0 -7 5 -4 10 3 6 11 10 16 10 6 0 7 -4 4 -10z m1505 -20 c11
-8 7 -9 -15 -4 -37 8 -45 14 -19 14 10 0 26 -5 34 -10z m-1623 -145 c0 -8 -4
-12 -9 -9 -5 3 -6 10 -3 15 9 13 12 11 12 -6z m28 -5 c3 -5 1 -10 -4 -10 -6 0
-11 5 -11 10 0 6 2 10 4 10 3 0 8 -4 11 -10z m2017 -12 c13 -13 24 -34 25 -48
l2 -25 -12 27 c-7 14 -21 36 -31 47 -26 28 -13 27 16 -1z m-1856 -23 c10 -8
14 -15 7 -15 -19 0 -43 11 -43 21 0 13 14 11 36 -6z m131 -28 c-1 -5 -6 -8
-10 -8 -4 1 -14 1 -22 1 -8 0 -15 4 -15 10 0 5 11 9 25 8 14 -1 24 -6 22 -11z
m37 -3 c3 -8 2 -12 -4 -9 -6 3 -10 10 -10 16 0 14 7 11 14 -7z m646 8 c0 -13
-12 -22 -22 -16 -10 6 -1 24 13 24 5 0 9 -4 9 -8z m-718 -37 c8 -11 1 -25 -12
-25 -5 0 -7 7 -4 15 4 9 0 15 -10 15 -9 0 -16 7 -16 16 0 14 2 15 18 3 9 -8
20 -18 24 -24z m123 25 c3 -5 1 -10 -4 -10 -6 0 -11 5 -11 10 0 6 2 10 4 10 3
0 8 -4 11 -10z m125 -5 c0 -8 -2 -15 -4 -15 -2 0 -6 7 -10 15 -3 8 -1 15 4 15
6 0 10 -7 10 -15z m430 -10 c0 -15 -15 -35 -26 -35 -8 0 -17 -7 -20 -15 -8
-21 -21 -19 -27 5 -6 23 -27 27 -27 5 0 -8 -4 -15 -10 -15 -17 0 -11 22 12 47
26 28 41 30 33 3 -5 -14 -2 -20 9 -20 10 0 16 9 16 25 0 23 2 24 20 15 11 -6
20 -12 20 -15z m130 15 c0 -5 -2 -10 -4 -10 -3 0 -8 5 -11 10 -3 6 -1 10 4 10
6 0 11 -4 11 -10z m-390 -10 c0 -5 -5 -10 -11 -10 -5 0 -7 5 -4 10 3 6 8 10
11 10 2 0 4 -4 4 -10z m43 -5 c1 -5 -6 -11 -15 -13 -11 -2 -18 3 -18 13 0 17
30 18 33 0z m40 -5 c-3 -11 -9 -20 -15 -20 -5 0 -4 9 2 20 6 11 12 20 14 20 2
0 2 -9 -1 -20z m251 5 c4 -11 -3 -19 -20 -25 -33 -13 -44 -12 -21 1 9 5 17 17
17 24 0 20 16 19 24 0z m1053 -27 c2 -18 0 -20 -7 -8 -12 18 -13 30 -2 30 4 0
9 -10 9 -22z m-1037 -28 c-8 -5 -16 -8 -17 -6 -2 2 -1 11 3 20 5 13 10 14 18
6 8 -8 7 -13 -4 -20z m-77 -2 c-6 -7 -13 -21 -16 -31 -6 -15 -4 -16 14 -7 11
6 17 14 15 18 -3 5 0 14 5 22 8 13 10 13 19 0 17 -25 11 -34 -30 -52 l-40 -17
0 35 c0 21 4 33 10 29 6 -3 10 -1 10 4 0 6 5 11 11 11 8 0 8 -4 2 -12z m1135
-23 c-3 -3 -9 2 -12 12 -6 14 -5 15 5 6 7 -7 10 -15 7 -18z m-1188 -29 c0 -13
3 -32 7 -42 5 -13 3 -16 -10 -11 -9 3 -19 2 -22 -3 -4 -6 0 -10 7 -11 16 -1
-30 -17 -54 -18 -10 -1 -18 4 -18 10 0 6 9 8 20 4 15 -5 20 -2 20 13 0 15 -6
18 -31 14 -21 -3 -29 -9 -25 -19 6 -15 -35 -63 -54 -63 -7 0 -6 5 2 14 7 8 16
12 21 9 4 -2 7 5 7 16 0 10 -6 22 -12 24 -8 3 -6 6 4 6 11 1 15 6 12 16 -5 12
0 14 25 9 26 -6 35 -2 59 24 33 38 42 39 42 8z m-55 -6 c-3 -5 -15 -10 -26
-10 -10 0 -19 5 -19 10 0 6 12 10 26 10 14 0 23 -4 19 -10z m-446 -44 c-1 -18
-2 -18 -6 -3 -3 11 -11 16 -18 13 -9 -3 -12 0 -9 9 8 21 34 6 33 -19z m1720
-16 c0 -9 -4 -8 -9 5 -5 11 -9 27 -9 35 0 9 4 8 9 -5 5 -11 9 -27 9 -35z
m-1675 14 c9 -24 7 -28 -9 -14 -17 14 -20 30 -6 30 5 0 12 -7 15 -16z m256 9
c0 -12 -20 -39 -20 -29 0 6 -6 2 -13 -9 -16 -20 -31 -7 -21 19 7 18 54 35 54
19z m-81 -50 c-1 -21 -3 -30 -6 -20 -5 19 -18 22 -28 7 -4 -6 -11 -7 -17 -4
-7 5 -3 10 10 15 12 5 22 15 22 24 0 8 5 15 10 15 6 0 9 -17 9 -37z m114 31
c3 -4 1 -16 -5 -28 -11 -20 -11 -20 -18 -1 -11 28 5 47 23 29z m1805 -25 c-3
-8 -7 -3 -11 10 -4 17 -3 21 5 13 5 -5 8 -16 6 -23z m-2207 -10 c10 -19 9 -20
-13 -14 -32 10 -35 15 -18 25 19 12 18 13 31 -11z m59 11 c0 -5 -4 -10 -10
-10 -5 0 -10 5 -10 10 0 6 5 10 10 10 6 0 10 -4 10 -10z m45 -10 c-3 -5 -10
-10 -16 -10 -5 0 -9 5 -9 10 0 6 7 10 16 10 8 0 12 -4 9 -10z m69 -2 c5 -10 7
-10 12 -1 3 7 11 10 19 7 11 -5 10 -9 -3 -23 -16 -16 -18 -16 -34 2 -20 23
-22 27 -9 27 5 0 12 -6 15 -12z m1623 -10 c-3 -8 -6 -5 -6 6 -1 11 2 17 5 13
3 -3 4 -12 1 -19z m-1976 -11 c-10 -9 -11 -8 -5 6 3 10 9 15 12 12 3 -3 0 -11
-7 -18z m159 -7 c0 -5 -2 -10 -4 -10 -3 0 -8 5 -11 10 -3 6 -1 10 4 10 6 0 11
-4 11 -10z m2040 -6 c0 -8 -4 -12 -10 -9 -5 3 -10 10 -10 16 0 5 5 9 10 9 6 0
10 -7 10 -16z m47 10 c-3 -3 -12 -4 -19 -1 -8 3 -5 6 6 6 11 1 17 -2 13 -5z
m-248 -49 l0 -20 -9 20 c-5 11 -9 27 -9 35 -1 13 0 13 9 0 5 -8 9 -24 9 -35z
m285 14 c-3 -5 -10 -7 -15 -3 -5 3 -7 10 -3 15 3 5 10 7 15 3 5 -3 7 -10 3
-15z m256 1 c0 -5 -7 -10 -15 -10 -8 0 -15 5 -15 10 0 6 7 10 15 10 8 0 15 -4
15 -10z m-75 -82 c13 -33 -3 -18 -19 17 -10 19 -14 41 -9 48 5 8 10 1 14 -18
4 -17 10 -38 14 -47z m15 62 c0 -5 -2 -10 -4 -10 -3 0 -8 5 -11 10 -3 6 -1 10
4 10 6 0 11 -4 11 -10z m-265 -10 c3 -5 1 -10 -4 -10 -6 0 -11 5 -11 10 0 6 2
10 4 10 3 0 8 -4 11 -10z m197 -40 c10 0 18 -4 18 -8 0 -4 -9 -8 -20 -8 -13 0
-23 11 -30 30 -13 38 -11 49 3 14 6 -16 19 -28 29 -28z m-52 31 c0 -6 -4 -13
-10 -16 -5 -3 -10 1 -10 9 0 9 5 16 10 16 6 0 10 -4 10 -9z m153 -6 c4 -8 2
-17 -3 -20 -6 -4 -10 3 -10 14 0 25 6 27 13 6z m-477 -104 c8 -35 13 -65 11
-68 -4 -3 -18 50 -42 157 l-6 25 11 -25 c6 -14 18 -54 26 -89z m284 69 c-8 -5
-16 -8 -17 -6 -2 2 -1 11 3 20 5 13 10 14 18 6 8 -8 7 -13 -4 -20z m260 6 c0
-11 -19 -15 -25 -6 -3 5 1 10 9 10 9 0 16 -2 16 -4z m-330 -21 c7 -9 10 -19 6
-23 -4 -4 -14 1 -21 11 -9 13 -15 15 -20 6 -4 -6 -1 -15 6 -20 7 -4 10 -11 7
-15 -4 -3 -14 1 -23 9 -13 14 -13 17 1 31 19 20 28 20 44 1z m-70 -5 c0 -5 -2
-10 -4 -10 -3 0 -8 5 -11 10 -3 6 -1 10 4 10 6 0 11 -4 11 -10z m110 -15 c0
-14 -2 -25 -4 -25 -2 0 -6 11 -8 25 -3 14 -1 25 3 25 5 0 9 -11 9 -25z m89 6
c15 -15 17 -22 8 -29 -14 -12 -31 4 -33 31 -2 22 2 21 25 -2z m61 -1 c0 -5 -4
-10 -10 -10 -5 0 -10 5 -10 10 0 6 5 10 10 10 6 0 10 -4 10 -10z m171 -35 c10
7 13 -18 2 -28 -10 -11 -34 53 -25 67 4 6 8 0 10 -17 2 -15 8 -25 13 -22z m99
35 c0 -5 -5 -10 -11 -10 -5 0 -7 5 -4 10 3 6 8 10 11 10 2 0 4 -4 4 -10z
m-4390 -3 c0 -2 -12 -14 -27 -28 l-28 -24 24 28 c23 25 31 32 31 24z m4320
-13 c0 -8 -5 -12 -10 -9 -6 4 -8 11 -5 16 9 14 15 11 15 -7z m135 -2 c-3 -3
-11 0 -18 7 -9 10 -8 11 6 5 10 -3 15 -9 12 -12z m-423 -22 c12 -10 24 -17 28
-15 5 3 11 -2 14 -11 4 -10 12 -14 22 -10 9 4 23 1 30 -5 11 -9 14 -8 14 2 0
8 12 15 31 16 20 2 29 -2 26 -10 -2 -7 -13 -12 -24 -12 -12 0 -25 -3 -29 -7
-4 -5 2 -8 12 -8 11 0 25 -5 31 -11 16 -16 32 -3 27 24 -2 12 -2 16 2 10 3 -7
20 -13 37 -14 l32 -1 -32 -9 c-18 -5 -33 -16 -33 -24 0 -8 -4 -15 -9 -15 -5 0
-7 -9 -4 -19 6 -23 33 -17 33 7 0 13 2 14 13 3 10 -11 10 -14 0 -18 -19 -7
-16 -21 6 -28 13 -4 18 -12 14 -22 -3 -8 0 -19 8 -23 7 -5 10 -12 6 -17 -5 -4
-12 -1 -17 6 -7 12 -11 12 -24 -2 -22 -21 -20 -30 4 -22 22 7 26 -5 8 -23 -9
-9 -9 -12 -1 -12 7 0 19 10 27 22 11 16 16 18 16 7 0 -8 -7 -24 -15 -35 -18
-23 -19 -37 -3 -32 12 4 17 19 27 93 6 46 7 48 14 22 4 -16 5 -37 2 -47 -4
-14 0 -20 17 -23 l23 -4 -22 -8 c-23 -7 -33 -35 -13 -35 6 0 10 6 10 13 0 19
20 -15 20 -35 0 -10 -4 -18 -9 -18 -5 0 -12 8 -14 18 -3 10 -5 6 -6 -10 -1
-20 4 -28 17 -30 9 0 24 -2 32 -2 8 -1 14 -7 13 -13 -1 -6 6 -9 17 -6 32 8 32
20 1 33 -31 12 -43 45 -33 83 6 21 6 21 12 -2 7 -31 30 -40 30 -12 0 11 5 23
10 26 6 4 10 -9 10 -32 0 -21 6 -50 14 -65 12 -23 12 -26 0 -21 -8 3 -14 -1
-14 -11 0 -9 -8 -16 -20 -16 -13 0 -20 -7 -20 -18 0 -10 -5 -23 -12 -30 -9 -9
-9 -15 -1 -23 17 -17 42 -4 37 18 -3 10 5 28 17 42 l22 24 9 -24 c5 -13 14
-27 21 -31 15 -9 -18 -22 -38 -14 -8 3 -15 2 -15 -3 0 -5 8 -11 19 -14 10 -2
20 -16 23 -30 4 -20 2 -24 -11 -19 -9 3 -22 12 -29 19 -15 15 -48 17 -56 4 -3
-4 -24 -11 -46 -15 -22 -3 -40 -11 -40 -16 0 -7 6 -7 18 -2 9 5 32 12 50 15
28 6 32 4 32 -14 0 -18 -2 -19 -15 -9 -12 10 -15 9 -15 -5 0 -13 6 -16 25 -11
22 6 25 3 25 -20 0 -22 -2 -25 -15 -14 -13 10 -15 9 -15 -9 0 -14 8 -23 27
-28 16 -3 41 -19 56 -35 29 -28 47 -36 47 -19 0 5 -7 11 -15 15 -8 3 -15 10
-15 16 0 16 22 12 36 -7 9 -12 13 -14 14 -5 0 7 -7 20 -15 28 -20 21 -19 36 3
32 10 -2 16 -11 14 -22 -3 -15 1 -18 22 -14 14 3 26 1 26 -3 0 -5 -7 -9 -15
-9 -8 0 -15 -5 -15 -11 0 -20 -26 -36 -68 -42 -53 -7 -59 -12 -41 -33 11 -14
11 -18 1 -21 -6 -3 -9 -10 -5 -15 4 -7 -1 -9 -14 -6 -16 4 -19 1 -16 -12 3
-10 14 -20 25 -23 14 -4 18 -2 14 9 -8 20 3 44 20 44 19 0 18 10 -3 26 -16 12
-15 13 10 14 17 0 27 -5 27 -15 0 -8 4 -15 9 -15 13 0 7 -28 -8 -43 -11 -10
-12 -8 -6 12 5 16 3 22 -5 19 -6 -2 -11 -8 -11 -13 0 -6 -7 -21 -15 -33 -18
-28 -8 -45 10 -20 12 16 26 15 26 -3 0 -14 -53 -21 -61 -7 -6 9 -10 8 -15 -5
-8 -23 -24 -22 -24 2 0 11 -5 23 -11 26 -19 12 -21 -3 -4 -35 17 -32 14 -60
-5 -60 -6 0 -8 4 -5 10 7 12 -12 50 -26 50 -6 0 -5 -9 3 -22 6 -13 11 -36 10
-53 -2 -18 0 -25 5 -18 5 6 20 16 35 22 19 7 25 15 21 29 -3 12 2 22 11 25 21
8 48 -2 40 -15 -3 -5 -12 -7 -19 -4 -9 3 -15 -4 -17 -22 -2 -16 -12 -31 -25
-37 -13 -5 -23 -13 -23 -17 0 -11 18 -10 25 2 10 15 35 12 35 -5 0 -8 -10 -16
-22 -16 l-23 -2 23 -4 c12 -2 22 -9 22 -14 0 -5 5 -9 11 -9 6 0 9 6 6 14 -3 8
-9 31 -13 50 -5 29 -3 36 10 36 15 0 21 -17 17 -47 -1 -7 3 -22 9 -33 9 -17 7
-22 -15 -30 -14 -5 -25 -14 -25 -20 0 -6 5 -8 10 -5 19 11 30 -5 18 -25 -9
-14 -19 -18 -35 -14 -19 5 -22 3 -17 -10 5 -14 2 -15 -20 -6 -14 5 -26 6 -26
3 0 -4 -7 3 -16 15 -12 18 -19 21 -30 11 -7 -6 -21 -9 -29 -5 -18 7 -20 -5 -2
-23 10 -11 10 -14 0 -18 -20 -7 -15 -23 8 -23 15 0 20 5 17 23 -3 25 7 26 67
3 28 -10 39 -19 37 -32 -3 -12 1 -15 13 -10 9 3 23 6 31 6 8 0 14 7 14 15 0 8
-7 15 -15 15 -8 0 -15 -5 -15 -12 0 -6 -3 -8 -7 -5 -3 4 6 20 22 35 26 26 30
27 46 14 21 -18 15 -36 -8 -27 -13 4 -14 3 -4 -9 7 -8 19 -12 27 -9 8 3 14 0
14 -7 0 -6 -4 -9 -9 -5 -10 6 -26 -32 -23 -52 2 -7 -12 -16 -30 -21 -26 -7
-34 -5 -39 7 -4 11 -8 7 -13 -12 -3 -16 -4 -32 -1 -37 10 -16 -14 -21 -35 -8
-14 9 -23 10 -28 2 -4 -6 -22 -17 -40 -25 -24 -10 -32 -19 -28 -32 3 -13 0
-17 -9 -13 -8 3 -16 0 -19 -7 -3 -9 -7 -8 -15 3 -12 18 -5 31 14 23 20 -7 19
7 -2 24 -17 13 -16 14 4 10 12 -3 27 1 34 9 6 8 8 14 3 15 -5 0 -26 1 -46 3
-26 2 -38 -1 -38 -10 0 -7 -9 -15 -19 -19 -12 -4 -18 -12 -14 -21 3 -8 -1 -14
-11 -14 -9 0 -16 7 -16 15 0 8 -9 15 -20 15 -11 0 -20 6 -20 14 0 8 -3 21 -6
29 -4 12 0 14 15 10 17 -4 19 -8 10 -19 -9 -11 -4 -13 25 -12 23 1 36 6 36 15
0 7 5 13 10 13 6 0 22 8 37 17 23 16 24 17 7 24 -31 12 -54 10 -54 -6 0 -22
-21 -18 -27 5 -4 14 -14 20 -35 20 -25 0 -28 3 -23 20 5 16 2 20 -14 20 -12 0
-21 5 -21 11 0 8 12 10 33 6 48 -8 62 4 36 32 -16 17 -24 19 -34 11 -8 -7 -23
-9 -35 -5 -21 7 -27 29 -10 40 6 3 10 17 10 31 0 13 -4 24 -10 24 -5 0 -10 -9
-10 -19 0 -11 -3 -22 -7 -24 -5 -3 -8 10 -8 29 0 19 5 34 11 34 7 0 14 9 17
20 3 11 10 20 16 20 7 0 7 -8 0 -27 -7 -19 -7 -29 0 -31 6 -2 11 -11 11 -20 0
-9 4 -23 9 -30 5 -8 8 5 7 32 -1 25 -4 46 -8 46 -4 0 -6 9 -5 20 1 12 7 18 14
16 7 -3 13 -1 13 4 0 6 -15 11 -32 11 -18 1 -25 3 -15 6 21 6 22 19 1 27 -8 3
-13 10 -9 15 8 14 -26 29 -55 24 l-24 -4 22 21 c12 11 22 30 22 40 0 17 -7 20
-39 20 -22 0 -43 5 -47 12 -4 7 -3 8 4 4 10 -6 24 5 61 49 11 14 11 19 1 25
-11 7 -11 12 -2 23 20 24 1 28 -29 6 -36 -25 -38 -15 -4 17 l25 23 -28 22
c-17 14 -22 23 -14 26 6 3 12 9 12 15 0 6 -6 8 -13 5 -10 -4 -14 4 -14 24 0
17 4 25 8 18 4 -6 12 -8 19 -4 10 6 10 10 -2 19 -21 16 -27 38 -16 60 8 14 7
17 -2 11 -13 -8 -11 10 6 66 2 9 -2 24 -10 32 -13 13 -12 17 10 35 16 12 22
22 15 26 -14 9 -31 -1 -31 -20 0 -8 -5 -14 -11 -14 -7 0 -18 -8 -25 -17 -12
-16 -15 -16 -24 -3 -16 24 -12 39 9 33 16 -4 19 0 18 29 -2 25 -6 33 -20 32
-10 -1 -16 1 -13 4 4 3 -1 16 -9 29 -9 13 -11 23 -6 23 5 0 13 -9 16 -20 4
-12 18 -23 35 -27 16 -3 28 -10 27 -16 -3 -13 60 -21 68 -7 12 19 26 10 19
-12 -6 -20 -5 -21 10 -9 9 7 16 19 16 26 0 8 6 15 13 18 6 2 1 3 -13 1 -76 -9
-104 -8 -108 5 -3 10 2 12 21 7 14 -3 28 -2 32 3 10 17 -12 21 -45 10 -27 -10
-34 -9 -48 6 -16 16 -16 17 5 11 15 -5 24 -2 31 9 5 9 13 16 18 16 5 -1 9 5 9
11 0 9 -12 12 -37 10 -54 -5 -47 14 7 21 55 6 56 7 48 35 -4 18 -8 20 -19 11
-8 -7 -14 -7 -14 -1 0 5 7 15 16 23 13 10 17 10 25 -2 5 -8 9 -22 9 -31 0 -10
5 -18 10 -18 6 0 10 5 10 12 0 9 3 9 12 0 8 -8 8 -15 -1 -25 -16 -20 -4 -46
20 -40 10 3 19 9 19 14 0 5 5 9 10 9 18 0 10 -19 -11 -25 -11 -4 -19 -9 -16
-11 10 -10 55 16 60 35 3 12 1 19 -4 15 -5 -3 -9 6 -9 20 0 27 -25 37 -33 14
-3 -9 -12 -5 -29 12 -13 14 -33 30 -43 36 -19 10 -33 34 -20 34 3 0 15 -9 27
-20z m88 5 c0 -8 -7 -15 -16 -15 -14 0 -14 3 -4 15 7 8 14 15 16 15 2 0 4 -7
4 -15z m84 6 c3 -5 -10 -11 -29 -13 -19 -2 -35 -1 -35 3 0 16 55 25 64 10z
m27 -18 c-8 -15 -10 -15 -11 -2 0 17 10 32 18 25 2 -3 -1 -13 -7 -23z m179 7
c0 -5 -4 -10 -10 -10 -5 0 -10 5 -10 10 0 6 5 10 10 10 6 0 10 -4 10 -10z
m-493 -32 c-3 -8 -6 -5 -6 6 -1 11 2 17 5 13 3 -3 4 -12 1 -19z m423 6 c0 -8
-5 -12 -10 -9 -6 4 -8 11 -5 16 9 14 15 11 15 -7z m84 -28 c-10 -8 -21 -12
-24 -10 -5 6 21 24 34 24 6 0 1 -6 -10 -14z m-569 -6 c3 -5 1 -10 -4 -10 -6 0
-11 5 -11 10 0 6 2 10 4 10 3 0 8 -4 11 -10z m95 1 c0 -5 8 -11 18 -14 16 -4
16 -4 0 -12 -23 -10 -48 0 -48 20 0 8 7 15 15 15 8 0 15 -4 15 -9z m352 -32
c-4 -26 -6 -29 -14 -15 -10 18 -4 46 10 46 5 0 6 -14 4 -31z m83 -14 c9 -40
-3 -27 -15 15 -5 19 -6 29 -1 24 5 -5 12 -22 16 -39z m73 18 c1 -24 0 -25 -9
-10 -5 9 -7 22 -4 27 9 15 10 13 13 -17z m-118 -39 c0 -8 -5 -14 -11 -14 -5 0
-8 4 -4 9 3 5 1 12 -5 16 -5 3 -10 11 -10 17 0 7 6 6 15 -2 8 -7 15 -19 15
-26z m-4470 22 c0 -2 -8 -10 -17 -17 -16 -13 -17 -12 -4 4 13 16 21 21 21 13z
m3914 -151 c15 -61 36 -137 46 -170 10 -33 22 -80 25 -105 4 -25 14 -56 22
-69 8 -13 10 -20 4 -17 -12 8 -4 -52 10 -70 5 -6 6 -13 3 -16 -3 -3 0 -25 6
-48 6 -23 13 -53 15 -68 2 -15 7 -45 11 -67 4 -22 3 -37 -1 -33 -7 7 -27 97
-55 253 -14 77 -35 167 -75 320 -36 138 -39 151 -50 210 -12 65 13 -13 39
-120z m648 133 c-8 -8 -8 -15 -1 -24 6 -7 6 -14 1 -18 -6 -3 -15 1 -22 9 -11
13 -10 18 6 30 23 17 32 19 16 3z m-122 -12 c0 -11 -19 -15 -25 -6 -3 5 1 10
9 10 9 0 16 -2 16 -4z m-3190 -10 c0 -2 -7 -7 -16 -10 -8 -3 -12 -2 -9 4 6 10
25 14 25 6z m3286 -60 c52 6 54 5 53 -18 -1 -17 -3 -18 -6 -5 -2 9 -13 17 -24
17 -11 0 -18 -4 -14 -9 3 -5 1 -12 -5 -16 -5 -3 -10 1 -10 9 0 20 -7 20 -27 1
-20 -21 -33 -10 -32 28 1 23 3 26 6 10 4 -21 8 -22 59 -17z m98 18 c9 -3 16
-12 16 -20 0 -20 -13 -17 -28 6 -13 22 -12 23 12 14z m126 -39 c7 -9 8 -15 2
-15 -5 0 -12 7 -16 15 -3 8 -4 15 -2 15 2 0 9 -7 16 -15z m67 9 c-3 -3 -12 -4
-19 -1 -8 3 -5 6 6 6 11 1 17 -2 13 -5z m-137 -8 c0 -3 -4 -8 -10 -11 -5 -3
-10 -1 -10 4 0 6 5 11 10 11 6 0 10 -2 10 -4z m-4830 -40 c0 -3 -4 -8 -10 -11
-5 -3 -10 -1 -10 4 0 6 5 11 10 11 6 0 10 -2 10 -4z m4840 -6 c0 -5 -5 -10
-11 -10 -5 0 -7 5 -4 10 3 6 8 10 11 10 2 0 4 -4 4 -10z m-4880 -31 c-7 -11
-14 -18 -17 -15 -3 3 0 12 7 21 18 21 23 19 10 -6z m4186 -6 c-10 -10 -19 5
-10 18 6 11 8 11 12 0 2 -7 1 -15 -2 -18z m646 10 c-19 -4 -21 -7 -11 -19 9
-11 7 -14 -15 -14 -24 0 -25 2 -14 20 8 12 23 19 38 19 24 -2 24 -2 2 -6z
m-3682 -32 c0 -5 14 -11 30 -13 22 -3 30 0 30 10 0 12 11 14 57 9 31 -3 59
-11 64 -18 4 -7 17 -9 29 -6 16 4 20 2 16 -9 -3 -8 -9 -21 -12 -29 -4 -10 0
-15 10 -15 9 0 16 4 16 8 0 13 48 33 55 22 3 -5 1 -11 -5 -15 -19 -12 -10 -26
13 -19 31 9 34 14 17 24 -11 7 -12 10 -2 10 7 0 20 -7 29 -15 14 -14 13 -18
-3 -37 l-19 -21 27 18 c18 11 34 14 45 10 10 -5 27 -7 37 -6 13 2 17 -2 13
-13 -4 -10 -1 -13 7 -10 7 3 28 -9 47 -27 32 -30 32 -32 15 -45 -17 -12 -17
-14 -3 -20 10 -3 24 -4 31 -1 10 4 13 1 10 -8 -3 -7 -15 -16 -27 -19 -17 -5
-19 -8 -8 -15 7 -5 27 -4 45 1 26 8 38 6 66 -11 29 -17 31 -21 16 -27 -18 -7
-18 -8 -2 -20 10 -7 16 -16 14 -21 -2 -4 7 -9 20 -11 12 -2 22 -8 22 -13 0 -6
-4 -7 -10 -4 -5 3 -10 1 -10 -4 0 -6 9 -11 20 -11 22 0 27 -16 8 -23 -7 -2 -9
-8 -5 -13 4 -4 17 -3 28 4 22 14 72 5 66 -12 -3 -6 -9 -10 -14 -9 -5 1 -9 -7
-9 -18 0 -10 3 -19 7 -19 4 0 9 -7 12 -14 4 -11 1 -13 -10 -9 -11 4 -14 2 -9
-5 4 -7 1 -12 -8 -12 -8 0 -17 -4 -20 -9 -3 -4 6 -7 21 -5 l26 3 -26 -27 c-23
-23 -29 -24 -53 -13 -15 6 -29 9 -32 7 -2 -3 7 -11 22 -17 28 -13 33 -25 14
-32 -7 -2 -9 -8 -5 -13 4 -5 12 -2 16 5 10 15 61 8 61 -8 0 -5 10 -7 23 -4 19
5 19 2 -8 -20 -16 -14 -27 -29 -22 -33 4 -4 13 -2 19 4 17 17 39 15 32 -2 -10
-26 -59 -39 -98 -26 -20 6 -36 16 -36 22 0 6 -8 8 -18 6 -10 -3 -27 1 -37 8
-10 8 -23 14 -28 14 -13 0 50 -42 88 -58 16 -8 35 -22 43 -33 7 -10 20 -19 27
-19 12 0 12 -5 3 -25 -13 -29 -22 -30 -62 -10 -31 17 -46 19 -46 8 0 -5 20
-16 45 -26 l44 -19 -16 -26 c-9 -15 -18 -29 -19 -30 -5 -8 -92 58 -98 74 -4 9
-9 14 -13 11 -8 -9 81 -104 94 -100 5 2 21 -5 34 -16 21 -18 22 -20 5 -21 -12
0 -16 -5 -12 -15 6 -17 -9 -20 -20 -4 -3 6 0 15 7 20 7 4 10 11 6 16 -5 4 -12
1 -17 -7 -7 -12 -14 -9 -40 15 -36 34 -39 22 -6 -19 20 -24 22 -33 14 -57 -5
-16 -15 -29 -21 -29 -6 0 -7 -3 -4 -7 4 -3 2 -12 -4 -20 -6 -7 -8 -13 -4 -13
4 0 14 8 20 17 13 17 14 17 34 -1 20 -18 20 -36 1 -36 -5 0 -7 7 -4 15 4 8 2
15 -4 15 -5 0 -12 -6 -15 -14 -8 -19 22 -30 40 -15 10 9 17 9 25 1 9 -9 8 -12
-5 -12 -9 0 -17 -7 -17 -16 0 -8 4 -13 9 -9 14 8 23 -12 16 -35 -4 -11 -14
-20 -24 -20 -23 0 -101 58 -101 76 0 15 -6 16 -35 5 -18 -7 -16 -10 15 -25 19
-9 50 -30 68 -45 l33 -28 -37 -37 c-38 -38 -61 -45 -70 -21 -4 8 -10 15 -16
15 -5 0 -6 -5 -2 -12 4 -6 3 -9 -2 -7 -68 35 -84 45 -84 56 0 17 -33 11 -54
-10 -14 -13 -34 -17 -94 -16 -81 2 -112 11 -112 34 0 8 -9 13 -20 12 -25 -2
-26 -14 -2 -21 9 -3 23 -15 29 -26 12 -18 11 -18 -10 -11 -21 8 -77 -13 -77
-30 0 -6 -8 -6 -39 0 -2 1 2 8 9 16 8 9 9 15 2 15 -6 0 -14 -5 -18 -11 -4 -6
-19 -9 -38 -5 -17 3 -26 2 -19 -2 18 -11 1 -30 -27 -30 -48 0 -56 -2 -78 -22
-12 -12 -23 -16 -27 -10 -3 6 -15 10 -27 10 -16 0 -18 -3 -9 -13 8 -11 7 -18
-7 -29 -21 -19 -55 -32 -47 -18 10 16 -11 12 -25 -5 -7 -8 -17 -12 -24 -8 -6
3 -2 -3 8 -15 20 -24 42 -30 30 -9 -5 8 -2 7 10 -2 13 -11 14 -16 4 -22 -14
-9 -24 -4 -72 38 -42 38 -44 45 -13 66 16 11 18 16 7 16 -9 1 -26 -7 -39 -16
-23 -16 -25 -15 -48 11 -13 16 -26 26 -29 23 -7 -6 18 -47 28 -47 5 0 8 -4 8
-10 0 -16 -21 -12 -37 8 -9 10 -12 11 -7 2 4 -9 3 -12 -2 -7 -5 5 -9 14 -9 20
0 7 -12 12 -27 12 -15 1 -31 5 -35 10 -4 4 0 5 10 2 9 -4 17 -2 17 3 0 6 -9
10 -20 10 -13 0 -18 5 -13 16 4 11 13 13 33 9 24 -5 28 -3 24 12 -6 20 -54 26
-54 7 0 -20 -27 -23 -51 -6 -22 15 -38 20 -81 24 -18 2 -26 18 -9 18 5 0 11 7
15 15 5 13 1 13 -26 -1 -25 -13 -35 -14 -53 -4 -13 7 -27 10 -33 6 -5 -3 -19
6 -32 19 -18 19 -26 22 -37 13 -10 -8 -19 -6 -36 8 -12 10 -24 20 -25 21 -2 1
-1 20 3 43 5 30 11 40 21 36 8 -3 14 0 14 6 0 7 10 23 23 37 l22 26 -27 -24
c-39 -34 -43 -14 -18 83 11 44 20 90 20 103 0 24 29 149 52 228 7 22 20 51 30
64 26 34 24 54 -4 45 -19 -5 -18 -3 7 17 59 47 65 54 65 75 0 47 237 284 284
284 12 0 34 7 49 15 21 10 34 12 47 5 26 -14 31 -13 28 6 -2 9 7 20 20 25 22
8 32 -4 12 -16 -13 -8 -13 -25 0 -25 6 0 15 11 20 25 5 14 11 25 14 25 2 0 12
3 22 7 12 4 15 3 10 -5 -10 -16 0 -15 29 4 22 14 26 14 49 -3 14 -10 26 -23
26 -29 0 -12 30 -41 30 -30 0 18 -30 76 -39 76 -6 0 -11 5 -11 10 0 6 5 10 10
10 6 0 10 -4 10 -9z m3068 -27 c-3 -14 -5 -12 -10 9 -3 19 -2 25 4 19 6 -6 8
-18 6 -28z m-4258 18 c0 -13 -12 -22 -22 -16 -10 6 -1 24 13 24 5 0 9 -4 9 -8z
m4330 -2 c0 -5 -9 -10 -21 -10 -11 0 -17 5 -14 10 3 6 13 10 21 10 8 0 14 -4
14 -10z m560 -10 c0 -5 -4 -10 -10 -10 -5 0 -10 5 -10 10 0 6 5 10 10 10 6 0
10 -4 10 -10z m20 -32 c0 -18 -2 -20 -9 -8 -6 8 -7 18 -5 22 9 14 14 9 14 -14z
m-603 6 c-3 -3 -12 -4 -19 -1 -8 3 -5 6 6 6 11 1 17 -2 13 -5z m563 -29 c0
-26 -4 -33 -14 -29 -21 8 -28 34 -11 40 8 4 12 10 9 15 -3 5 0 9 5 9 6 0 11
-16 11 -35z m95 -3 c-8 -2 -15 -11 -16 -20 0 -10 -3 -12 -5 -5 -3 7 0 22 6 34
10 17 14 19 21 8 6 -9 4 -15 -6 -17z m-4675 4 c0 -2 -8 -10 -17 -17 -16 -13
-17 -12 -4 4 13 16 21 21 21 13z m4602 -38 c-8 -8 -9 -4 -5 13 4 13 8 18 11
10 2 -7 -1 -18 -6 -23z m-602 -18 c0 -12 -8 -12 -35 0 -18 8 -17 9 8 9 15 1
27 -3 27 -9z m707 4 c-3 -3 -12 -4 -19 -1 -8 3 -5 6 6 6 11 1 17 -2 13 -5z
m-77 -13 c0 -11 -40 -22 -53 -14 -5 3 -3 9 4 14 18 11 49 11 49 0z m50 -10 c0
-5 -7 -12 -16 -15 -14 -5 -15 -4 -4 9 14 17 20 19 20 6z m-35 -32 c4 -6 5 -12
3 -14 -7 -7 -48 7 -48 16 0 13 37 11 45 -2z m53 -6 c-2 -10 -12 -19 -23 -20
-11 -2 -14 0 -7 3 6 3 12 12 12 20 0 8 5 14 11 14 6 0 9 -8 7 -17z m-738 3 c0
-2 -7 -9 -15 -16 -13 -11 -14 -10 -9 4 5 14 24 23 24 12z m630 -5 c0 -5 9 -11
20 -14 20 -5 29 -37 10 -37 -5 0 -10 7 -10 16 0 8 -5 12 -10 9 -6 -3 -17 0
-25 9 -19 19 -19 26 0 26 8 0 15 -4 15 -9z m-92 -8 c-6 -17 43 -54 63 -48 26
9 26 -21 -1 -35 -11 -6 -20 -17 -20 -25 0 -19 -5 -19 -30 2 -16 14 -19 25 -14
50 4 21 2 33 -5 33 -6 0 -11 7 -11 15 0 8 5 15 10 15 6 0 9 -3 8 -7z m-4605
-18 c-3 -9 -8 -14 -10 -11 -3 3 -2 9 2 15 9 16 15 13 8 -4z m4842 -15 c3 -5
-1 -10 -9 -10 -9 0 -16 5 -16 10 0 6 4 10 9 10 6 0 13 -4 16 -10z m-735 -20
c0 -5 -2 -10 -4 -10 -3 0 -8 5 -11 10 -3 6 -1 10 4 10 6 0 11 -4 11 -10z m660
-30 c0 -4 -11 -5 -25 -2 -14 2 -23 8 -20 12 6 10 45 1 45 -10z m-600 6 c0 -3
-4 -8 -10 -11 -5 -3 -10 -1 -10 4 0 6 5 11 10 11 6 0 10 -2 10 -4z m687 -2
c-3 -3 -12 -4 -19 -1 -8 3 -5 6 6 6 11 1 17 -2 13 -5z m-4907 -28 c0 -2 -7 -9
-15 -16 -13 -11 -14 -10 -9 4 5 14 24 23 24 12z m4865 -26 c3 -5 1 -10 -4 -10
-6 0 -11 5 -11 10 0 6 2 10 4 10 3 0 8 -4 11 -10z m200 -20 c3 -5 1 -10 -4
-10 -6 0 -11 5 -11 10 0 6 2 10 4 10 3 0 8 -4 11 -10z m130 0 c3 -5 1 -10 -4
-10 -6 0 -11 5 -11 10 0 6 2 10 4 10 3 0 8 -4 11 -10z m-955 -10 c0 -5 -7 -10
-15 -10 -8 0 -15 -7 -15 -15 0 -8 -7 -15 -16 -15 -14 0 -14 1 0 16 9 8 16 20
16 25 0 5 7 9 15 9 8 0 15 -4 15 -10z m615 -10 c-4 -6 -2 -17 4 -24 9 -11 6
-15 -11 -19 -24 -7 -42 3 -20 10 6 3 12 11 12 18 0 7 -6 16 -12 18 -7 3 -3 6
10 6 14 1 21 -3 17 -9z m69 -5 c-4 -8 -12 -15 -20 -15 -20 0 -17 18 4 23 9 3
18 5 19 6 1 0 0 -6 -3 -14z m1176 5 c0 -5 -2 -10 -4 -10 -3 0 -8 5 -11 10 -3
6 -1 10 4 10 6 0 11 -4 11 -10z m-1130 -20 c0 -5 -4 -10 -10 -10 -5 0 -10 5
-10 10 0 6 5 10 10 10 6 0 10 -4 10 -10z m105 -48 c-6 -7 -45 9 -45 18 0 4 11
3 24 -3 14 -7 23 -13 21 -15z m-3175 14 c0 -11 -19 -15 -25 -6 -3 5 1 10 9 10
9 0 16 -2 16 -4z m2899 -20 c10 -12 8 -13 -9 -9 -25 7 -37 23 -17 23 8 0 20
-6 26 -14z m81 4 c0 -5 -5 -10 -11 -10 -5 0 -7 5 -4 10 3 6 8 10 11 10 2 0 4
-4 4 -10z m-628 -42 c-9 -9 -12 -7 -12 12 0 19 3 21 12 12 9 -9 9 -15 0 -24z
m528 -20 c0 -13 -23 -5 -28 10 -2 7 2 10 12 6 9 -3 16 -11 16 -16z m240 2 c0
-5 -4 -10 -10 -10 -5 0 -10 5 -10 10 0 6 5 10 10 10 6 0 10 -4 10 -10z m-75
-10 c-3 -5 -13 -10 -21 -10 -8 0 -14 5 -14 10 0 6 9 10 21 10 11 0 17 -4 14
-10z m-105 -10 c0 -5 -2 -10 -4 -10 -3 0 -8 5 -11 10 -3 6 -1 10 4 10 6 0 11
-4 11 -10z m-2975 -30 c-17 -19 -17 -20 -1 -20 9 0 14 -4 11 -10 -9 -15 -35
-12 -42 5 -3 9 2 22 13 30 28 21 40 18 19 -5z m2895 10 c0 -5 -4 -10 -10 -10
-5 0 -10 5 -10 10 0 6 5 10 10 10 6 0 10 -4 10 -10z m64 -11 c14 -13 3 -19
-21 -13 -12 3 -24 13 -27 21 -5 11 -1 13 17 8 12 -4 26 -11 31 -16z m191 -8
c-3 -6 -14 -11 -23 -11 -15 1 -15 2 2 15 21 16 32 13 21 -4z m-730 -1 c3 -5
-1 -10 -9 -10 -9 0 -16 5 -16 10 0 6 4 10 9 10 6 0 13 -4 16 -10z m490 -17 c5
-10 10 -25 13 -33 8 -24 7 -89 -1 -97 -12 -11 -42 12 -42 33 -1 11 -4 24 -8
30 -7 11 0 24 14 24 4 0 10 -13 14 -30 4 -16 11 -30 16 -30 13 0 10 22 -6 44
-8 10 -12 23 -9 27 2 4 -5 13 -16 19 -11 6 -18 15 -15 21 10 15 32 10 40 -8z
m145 1 c0 -7 -27 -34 -34 -34 -12 0 -6 28 7 33 17 8 27 8 27 1z m270 2 c0 -3
-4 -8 -10 -11 -5 -3 -10 -1 -10 4 0 6 5 11 10 11 6 0 10 -2 10 -4z m-1010 -39
c0 -7 -4 -6 -10 3 -14 21 -13 -50 0 -86 6 -15 8 -29 5 -32 -9 -10 -14 3 -23
63 -7 42 -7 62 1 67 14 8 27 1 27 -15z m47 -14 c-3 -10 -5 -4 -5 12 0 17 2 24
5 18 2 -7 2 -21 0 -30z m593 26 c0 -6 10 -19 23 -30 20 -17 20 -18 3 -19 -20
0 -45 26 -46 48 0 6 5 12 10 12 6 0 10 -5 10 -11z m327 -11 c-3 -8 -6 -5 -6 6
-1 11 2 17 5 13 3 -3 4 -12 1 -19z m-877 -4 c0 -8 -5 -12 -10 -9 -6 4 -8 11
-5 16 9 14 15 11 15 -7z m40 12 c0 -11 -19 -15 -25 -6 -3 5 1 10 9 10 9 0 16
-2 16 -4z m595 -36 c3 -5 -1 -10 -10 -10 -9 0 -13 5 -10 10 3 6 8 10 10 10 2
0 7 -4 10 -10z m45 -5 c14 -16 10 -18 -14 -9 -9 3 -16 10 -16 15 0 14 16 11
30 -6z m380 11 c0 -3 -4 -8 -10 -11 -5 -3 -10 -1 -10 4 0 6 5 11 10 11 6 0 10
-2 10 -4z m-3370 -13 c0 -5 -11 -13 -25 -20 -27 -12 -33 -5 -13 15 13 13 38
16 38 5z m2940 -22 c0 -5 -7 -12 -16 -15 -10 -4 -13 -13 -9 -26 4 -11 2 -20
-4 -20 -15 0 -14 38 2 55 14 16 27 19 27 6z m180 -1 c0 -5 -10 -10 -22 -9 -22
0 -22 1 -3 9 11 5 21 9 23 9 1 1 2 -3 2 -9z m-244 -22 c4 -7 3 -8 -4 -4 -8 4
-12 0 -12 -10 0 -14 -3 -15 -12 -6 -10 10 -10 15 2 22 19 12 17 12 26 -2z
m134 2 c0 -5 -4 -10 -10 -10 -5 0 -10 5 -10 10 0 6 5 10 10 10 6 0 10 -4 10
-10z m225 -20 c3 -5 1 -10 -4 -10 -6 0 -11 5 -11 10 0 6 2 10 4 10 3 0 8 -4
11 -10z m-427 -16 c23 -11 32 -22 32 -41 0 -22 2 -24 15 -13 14 11 14 10 5
-15 -11 -30 -8 -41 9 -30 6 3 11 17 11 31 0 13 6 24 13 25 6 1 1 4 -12 8 -14
4 -27 13 -29 20 -3 10 2 12 19 8 13 -4 35 -7 49 -7 21 -1 23 -2 10 -13 -27
-22 -48 -73 -38 -91 6 -10 5 -16 -2 -16 -5 0 -10 5 -10 10 0 6 -9 10 -20 10
-14 0 -20 7 -20 24 0 13 -6 29 -14 36 -8 6 -12 18 -9 25 3 9 -5 17 -21 21 -14
3 -26 10 -26 15 0 12 2 12 38 -7z m-2908 -4 c0 -5 -5 -10 -11 -10 -5 0 -7 5
-4 10 3 6 8 10 11 10 2 0 4 -4 4 -10z m2322 -184 c0 -86 -2 -160 -6 -163 -3
-3 -6 64 -6 150 0 85 -3 164 -6 174 -5 14 -4 15 5 7 9 -9 13 -57 13 -168z
m-2305 115 c-1 -11 -6 -17 -14 -14 -10 4 -11 9 -2 19 15 19 18 18 16 -5z
m3200 -3 c-3 -8 -6 -5 -6 6 -1 11 2 17 5 13 3 -3 4 -12 1 -19z m-167 -38 c0
-11 -6 -20 -14 -20 -12 0 -14 14 -7 38 1 1 6 2 11 2 6 0 10 -9 10 -20z m-3040
-7 c0 -3 -6 -3 -14 0 -8 3 -17 -2 -21 -11 -3 -9 -1 -18 4 -20 22 -7 10 -19
-13 -15 -22 5 -24 7 -13 27 7 11 16 24 21 28 9 6 36 0 36 -9z m2445 -3 c-3 -5
-11 -10 -16 -10 -6 0 -7 5 -4 10 3 6 11 10 16 10 6 0 7 -4 4 -10z m470 -30 c1
-11 -3 -19 -9 -17 -6 2 -11 16 -12 31 -1 32 19 19 21 -14z m235 -4 c0 -3 -4
-8 -10 -11 -5 -3 -10 -1 -10 4 0 6 5 11 10 11 6 0 10 -2 10 -4z m-256 -32 c10
-26 7 -32 -22 -42 -30 -10 -62 4 -62 27 0 14 17 15 25 1 3 -5 17 -10 31 -10
13 0 24 5 24 10 0 6 -7 10 -15 10 -8 0 -15 5 -15 10 0 16 27 11 34 -6z m93 -1
c-12 -3 -15 -8 -9 -16 7 -8 5 -16 -4 -25 -12 -11 -14 -9 -14 11 0 28 8 37 29
36 12 -1 12 -2 -2 -6z m196 0 c-7 -2 -19 -2 -25 0 -7 3 -2 5 12 5 14 0 19 -2
13 -5z m-3268 -83 c-3 -4 7 -16 20 -26 14 -10 25 -23 25 -27 0 -5 -18 5 -40
23 -25 19 -37 36 -33 46 4 11 9 12 19 3 8 -6 12 -15 9 -19z m2975 15 c0 -8 -7
-15 -15 -15 -26 0 -18 20 13 29 1 1 2 -6 2 -14z m65 5 c3 -5 1 -10 -4 -10 -6
0 -11 5 -11 10 0 6 2 10 4 10 3 0 8 -4 11 -10z m-375 -53 c-4 -5 -20 -7 -36
-5 l-29 4 28 12 c15 6 27 19 28 29 1 12 3 10 8 -7 5 -14 5 -29 1 -33z m243 39
c7 -17 -11 -36 -35 -36 -10 0 -18 -4 -18 -10 0 -5 -9 -10 -20 -10 -11 0 -20 4
-20 10 0 5 -7 7 -16 3 -13 -5 -15 -2 -9 18 9 30 17 37 22 22 7 -18 43 -16 43
2 0 19 46 20 53 1z m101 -2 c9 -24 7 -27 -9 -10 -17 17 -19 26 -6 26 5 0 12
-7 15 -16z m43 -26 c-3 -8 -6 -5 -6 6 -1 11 2 17 5 13 3 -3 4 -12 1 -19z m-82
2 c6 -9 -31 -49 -45 -50 -13 0 -33 20 -27 27 5 4 12 1 17 -7 7 -11 11 -8 21
13 13 28 24 34 34 17z m-231 -35 c-4 -8 -10 -12 -15 -9 -14 8 -10 24 6 24 9 0
12 -6 9 -15z m-204 -16 c0 -5 -4 -9 -10 -9 -5 0 -10 7 -10 16 0 8 5 12 10 9 6
-3 10 -10 10 -16z m171 4 c1 -10 0 -22 -2 -28 -1 -5 -4 -25 -4 -43 -1 -19 -6
-37 -12 -40 -5 -4 -13 -16 -17 -26 -5 -15 -9 -17 -19 -7 -9 10 -8 16 8 29 22
19 24 44 7 82 -8 18 -11 20 -11 8 -1 -28 -21 -21 -21 6 0 18 7 26 23 29 42 8
47 7 48 -10z m93 2 c4 -10 -1 -15 -14 -15 -11 0 -20 7 -20 15 0 8 6 15 14 15
8 0 16 -7 20 -15z m-188 -32 c-11 -11 -19 6 -11 24 8 17 8 17 12 0 3 -10 2
-21 -1 -24z m363 5 c4 7 12 3 20 -10 11 -18 11 -20 -2 -15 -9 3 -17 2 -19 -3
-2 -5 -11 -2 -22 5 -12 9 -16 20 -12 32 7 17 8 17 18 -1 6 -12 13 -14 17 -8z
m-226 5 c-21 -8 -15 -20 12 -27 14 -4 25 -13 25 -21 0 -8 6 -15 13 -16 10 0
10 -2 0 -6 -19 -7 -16 -41 5 -46 11 -3 9 -5 -8 -6 -15 -1 -31 7 -39 18 -8 11
-20 17 -28 14 -8 -3 -13 3 -13 17 0 19 3 20 15 10 8 -6 20 -10 27 -7 8 4 7 6
-4 6 -10 1 -18 5 -18 10 0 5 8 12 18 14 13 4 11 5 -5 6 -16 1 -23 7 -23 21 0
13 6 20 18 19 10 0 12 -3 5 -6z m154 -7 c-4 -9 3 -16 16 -20 20 -5 20 -6 -5
-26 -30 -23 -46 -27 -28 -5 6 8 9 18 6 24 -6 10 2 41 11 41 3 0 3 -6 0 -14z
m-367 -12 c0 -8 -5 -12 -10 -9 -6 4 -8 11 -5 16 9 14 15 11 15 -7z m280 6 c0
-5 -7 -10 -16 -10 -8 0 -12 5 -9 10 3 6 10 10 16 10 5 0 9 -4 9 -10z m48 -7
c-2 -10 -10 -18 -18 -18 -8 0 -16 8 -18 18 -2 12 3 17 18 17 15 0 20 -5 18
-17z m-481 -40 c-3 -10 -5 -2 -5 17 0 19 2 27 5 18 2 -10 2 -26 0 -35z m253
18 c0 -6 -4 -13 -10 -16 -5 -3 -10 1 -10 9 0 9 5 16 10 16 6 0 10 -4 10 -9z
m-40 -18 c0 -8 -5 -13 -12 -11 -18 6 -21 25 -3 25 8 0 15 -7 15 -14z m65 7 c3
-5 1 -10 -4 -10 -6 0 -11 5 -11 10 0 6 2 10 4 10 3 0 8 -4 11 -10z m1090 0 c3
-5 1 -10 -4 -10 -6 0 -11 5 -11 10 0 6 2 10 4 10 3 0 8 -4 11 -10z m-885 -10
c0 -5 -7 -10 -15 -10 -8 0 -15 5 -15 10 0 6 7 10 15 10 8 0 15 -4 15 -10z
m113 -7 c-3 -7 -9 -13 -14 -13 -5 0 -9 6 -9 13 0 8 6 14 14 14 8 0 12 -6 9
-14z m78 -6 c-10 -9 -11 -8 -5 6 3 10 9 15 12 12 3 -3 0 -11 -7 -18z m-4511 3
c0 -5 -2 -10 -4 -10 -3 0 -8 5 -11 10 -3 6 -1 10 4 10 6 0 11 -4 11 -10z
m1494 -16 c3 -8 2 -12 -4 -9 -6 3 -10 10 -10 16 0 14 7 11 14 -7z m2582 -19
c-3 -9 -12 -12 -21 -9 -14 6 -14 9 2 26 18 20 30 10 19 -17z m479 25 c-3 -5
-10 -10 -16 -10 -5 0 -9 5 -9 10 0 6 7 10 16 10 8 0 12 -4 9 -10z m-242 -6 c9
-10 -4 -34 -19 -34 -8 0 -14 6 -14 13 0 22 19 35 33 21z m-488 -69 c-3 -26 -9
-45 -12 -42 -2 3 -1 26 2 52 4 25 10 44 12 41 3 -3 2 -26 -2 -51z m-2597 24
c26 -21 26 -21 3 -14 -15 5 -21 3 -17 -3 4 -7 -4 -6 -23 1 -17 6 -27 16 -24
24 7 19 31 16 61 -8z m213 8 c-6 -8 -9 -17 -6 -20 3 -4 2 -5 -2 -2 -3 3 -12 0
-20 -6 -10 -9 -13 -8 -13 1 0 13 29 39 44 40 5 0 3 -6 -3 -13z m2619 -17 c0
-5 -4 -10 -10 -10 -5 0 -10 -7 -10 -17 0 -9 -3 -14 -6 -10 -8 8 5 47 17 47 5
0 9 -4 9 -10z m44 -6 c9 -24 2 -26 -12 -4 -7 11 -8 20 -3 20 5 0 12 -7 15 -16z
m170 0 c9 -24 7 -27 -9 -10 -17 17 -19 26 -6 26 5 0 12 -7 15 -16z m42 2 c18
-18 18 -32 0 -39 -10 -4 -12 0 -9 14 3 10 0 19 -6 19 -6 0 -11 5 -11 10 0 14
9 12 26 -4z m-3404 -18 c-7 -7 -12 -8 -12 -2 0 6 3 14 7 17 3 4 9 5 12 2 2 -3
-1 -11 -7 -17z m3028 18 c0 -3 -4 -8 -10 -11 -5 -3 -10 -1 -10 4 0 6 5 11 10
11 6 0 10 -2 10 -4z m191 -40 c-13 -14 -21 -28 -18 -33 9 -14 -9 -36 -22 -29
-17 11 -14 56 4 56 9 0 21 11 27 25 8 17 15 22 22 15 6 -6 2 -18 -13 -34z
m-4234 12 c-3 -8 -6 -5 -6 6 -1 11 2 17 5 13 3 -3 4 -12 1 -19z m4321 9 c-30
-12 -37 -27 -13 -27 8 0 15 -4 15 -10 0 -16 -22 -12 -35 7 -16 22 1 42 35 42
l25 -1 -27 -11z m-3268 -7 c-19 -13 -30 -13 -30 0 0 6 10 10 23 10 18 0 19 -2
7 -10z m3210 -46 c0 -8 8 -14 18 -14 15 -1 15 -2 -2 -11 -14 -9 -20 -8 -27 2
-12 19 -11 52 1 44 6 -3 10 -13 10 -21z m167 0 c-3 -3 -12 -4 -19 -1 -8 3 -5
6 6 6 11 1 17 -2 13 -5z m-268 -48 c-14 -15 -22 0 -13 26 7 22 7 22 14 3 4
-11 4 -24 -1 -29z m221 14 c0 -13 -5 -18 -15 -14 -12 5 -13 10 -4 20 15 19 19
18 19 -6z m-460 -4 c0 -3 -4 -8 -10 -11 -5 -3 -10 -1 -10 4 0 6 5 11 10 11 6
0 10 -2 10 -4z m-3351 -35 c71 -56 120 -108 112 -117 -5 -5 -12 -24 -16 -43
-5 -25 -4 -32 5 -26 9 6 9 3 1 -13 -16 -30 -28 -35 -52 -22 -36 20 -10 -14 38
-49 52 -37 66 -40 29 -6 -30 28 -28 38 14 60 31 16 60 11 60 -11 0 -8 5 -14
11 -14 5 0 7 -5 3 -12 -5 -7 -2 -9 9 -5 10 4 14 2 11 -6 -5 -14 53 -16 75 -3
10 6 11 3 7 -12 -5 -15 -2 -20 11 -18 10 0 17 -5 15 -11 -1 -7 6 -13 15 -13
10 -1 29 -14 43 -30 14 -17 34 -30 47 -30 13 0 23 -5 23 -11 0 -5 4 -7 10 -4
9 5 68 -20 80 -34 6 -7 78 -41 88 -41 3 0 -4 7 -16 16 -23 16 -22 37 2 28 7
-3 19 2 26 10 7 9 16 13 20 11 5 -3 28 -1 51 4 40 9 72 2 89 -18 4 -6 43 -26
75 -40 6 -2 2 6 -9 17 -18 20 -18 22 0 39 12 13 19 14 22 5 5 -16 23 -16 21 1
-3 24 1 37 12 37 8 0 7 -6 -2 -16 -12 -15 -11 -16 8 -10 12 4 33 2 45 -4 21
-10 21 -10 6 3 -10 8 -18 17 -18 21 0 12 17 6 40 -14 13 -11 17 -20 10 -20 -7
0 -10 -8 -7 -20 3 -14 -4 -28 -25 -45 -28 -24 -32 -25 -54 -10 -32 21 -41 19
-19 -5 17 -19 16 -20 -15 -47 -51 -43 -68 -54 -81 -51 -6 2 -14 -3 -16 -9 -3
-8 3 -13 14 -13 11 0 29 -9 41 -20 12 -11 25 -20 30 -20 5 0 16 -8 23 -17 13
-15 12 -15 -6 -6 -13 8 -25 8 -38 1 -15 -8 -18 -7 -11 3 4 7 -7 3 -24 -10 -34
-24 -41 -41 -17 -41 8 0 15 -4 15 -10 0 -14 -9 -12 -60 13 -29 14 -44 28 -42
38 2 12 -4 15 -23 11 -31 -5 -33 -28 -2 -36 12 -3 38 -19 57 -36 19 -16 27
-27 18 -24 -10 3 -18 11 -18 18 0 6 -7 3 -14 -6 -7 -10 -18 -18 -25 -18 -6 0
-11 -4 -11 -10 0 -5 -10 -10 -23 -10 -13 0 -28 -5 -34 -11 -15 -15 -66 19 -58
39 4 10 0 12 -11 8 -8 -3 -20 -6 -25 -6 -5 0 -9 -6 -9 -14 0 -8 -8 -17 -17
-20 -10 -2 -2 -2 17 0 27 4 42 -1 65 -20 l30 -24 -27 3 c-14 2 -35 -4 -45 -13
-10 -10 -27 -17 -38 -17 -11 0 -19 -6 -18 -12 2 -10 -3 -10 -22 -1 -32 14 -32
34 0 40 14 3 25 2 25 -1 0 -4 9 -7 20 -7 11 0 20 6 20 13 0 14 -71 8 -102 -8
-28 -15 -111 38 -105 68 3 19 1 20 -18 11 -18 -8 -30 -5 -63 16 -50 31 -57 43
-41 62 11 13 9 14 -16 8 -17 -4 -26 -3 -22 3 3 5 -3 29 -15 52 -16 33 -25 41
-41 37 -18 -4 -17 -3 4 20 12 13 20 24 17 24 -12 0 -56 -26 -72 -43 -23 -23
-28 -22 -67 13 -19 16 -40 30 -48 30 -9 0 -11 8 -7 25 6 23 5 24 -19 13 -19
-8 -28 -8 -40 2 -10 8 -15 9 -15 1 0 -6 5 -11 10 -11 16 0 12 -30 -5 -36 -8
-4 -15 -11 -15 -17 0 -5 9 -2 19 7 25 23 49 18 70 -14 9 -14 11 -21 3 -16 -19
11 -102 -33 -95 -52 5 -12 2 -12 -15 -3 -12 7 -22 16 -22 21 0 12 -47 14 -52
3 -1 -5 -20 -21 -41 -36 -39 -30 -74 -30 -63 -1 4 9 2 12 -5 8 -6 -3 -9 -19
-5 -35 4 -22 2 -29 -9 -29 -21 0 -19 -19 10 -75 18 -37 21 -51 12 -57 -9 -6
-9 -10 1 -20 9 -9 7 -17 -10 -35 -24 -26 -19 -32 6 -7 22 21 49 10 77 -31 13
-19 30 -35 37 -35 19 0 14 -18 -8 -25 -11 -3 -20 -13 -20 -20 0 -9 6 -12 17
-8 13 5 15 2 10 -11 -4 -11 -3 -15 4 -11 6 4 16 -1 23 -11 8 -10 20 -15 29
-11 9 3 19 2 22 -3 3 -5 13 -6 21 -3 13 5 13 7 2 14 -10 7 -10 9 2 9 31 0 41
-15 20 -32 -29 -25 -73 -46 -88 -41 -21 8 -72 64 -72 80 0 9 -6 13 -15 9 -18
-6 -95 66 -95 89 0 8 -7 15 -15 15 -22 0 -18 -28 5 -35 11 -3 20 -10 20 -15 0
-10 66 -76 110 -109 39 -29 32 -41 -8 -12 -17 12 -35 21 -42 21 -6 0 -8 5 -5
10 10 16 -6 12 -59 -15 -27 -14 -50 -24 -51 -22 -1 1 -8 12 -14 25 -6 12 -18
22 -26 22 -20 0 -28 19 -15 35 15 18 30 10 30 -16 0 -10 5 -19 10 -19 6 0 10
-7 10 -15 0 -8 7 -15 15 -15 8 0 15 7 15 16 0 9 5 12 13 8 7 -4 9 -3 4 2 -5 5
-14 9 -20 9 -19 0 -41 55 -28 68 17 17 13 26 -9 20 -10 -3 -26 -16 -35 -29 -8
-13 -22 -24 -29 -24 -8 0 -16 -6 -19 -12 -2 -7 -7 -10 -11 -7 -4 4 0 14 8 22
12 12 13 17 3 21 -9 5 -9 7 1 12 19 9 15 43 -5 39 -10 -1 -13 0 -7 2 15 5 25
41 13 49 -5 3 -9 0 -9 -6 0 -6 -5 -8 -10 -5 -6 4 -10 12 -9 18 4 36 -4 38 -26
4 -14 -20 -29 -36 -33 -35 -14 3 -47 -16 -60 -34 -7 -10 -19 -18 -27 -18 -8 0
-20 -8 -27 -18 -7 -10 -28 -27 -45 -37 -18 -11 -33 -22 -33 -26 0 -4 -9 -9
-21 -12 -17 -5 -19 -9 -10 -26 14 -26 14 -31 -2 -25 -14 5 -41 -50 -39 -78 1
-10 -5 -18 -13 -18 -8 0 -15 -6 -15 -14 0 -8 -17 -28 -37 -45 -20 -17 -34 -34
-30 -38 5 -4 29 -10 55 -13 45 -5 47 -6 45 -36 -1 -27 1 -31 18 -27 13 4 19 0
19 -11 0 -9 -4 -16 -9 -16 -5 0 -3 -13 5 -30 12 -22 12 -34 4 -50 -6 -11 -8
-21 -5 -21 3 -1 8 -2 13 -3 4 -1 12 -5 19 -9 7 -4 24 -1 38 9 21 14 30 14 55
4 16 -7 32 -22 36 -34 4 -11 15 -27 25 -34 11 -7 19 -19 19 -26 0 -7 14 -25
31 -40 20 -18 29 -34 26 -46 -7 -29 8 -42 49 -42 22 0 44 -3 49 -8 6 -4 21
-11 35 -15 41 -12 410 -199 410 -208 0 -4 -8 -3 -19 2 -10 6 -22 7 -26 3 -5
-4 -5 -2 -2 4 9 16 -32 25 -56 12 -20 -10 -20 -11 4 -24 13 -7 31 -11 39 -9 8
3 22 0 30 -5 12 -8 10 -10 -9 -10 -31 0 -19 -12 27 -27 l37 -12 -35 5 c-32 6
-33 5 -16 -9 27 -20 15 -52 -14 -37 -11 6 -20 18 -21 28 0 12 -4 10 -12 -8 -6
-14 -12 -27 -13 -29 -4 -5 -64 23 -64 30 0 10 -60 17 -66 7 -3 -4 0 -8 7 -8 7
0 9 -8 6 -21 -4 -17 -3 -19 6 -10 13 13 47 15 47 2 0 -12 -50 -28 -71 -24 -10
2 -19 14 -22 25 -5 17 -9 19 -20 9 -12 -9 -16 -7 -20 10 -5 18 -10 20 -36 14
-23 -5 -31 -3 -31 7 0 10 -2 10 -8 0 -5 -7 -16 -10 -26 -6 -15 6 -15 7 1 20
15 11 16 13 2 14 -9 0 -32 16 -51 36 -32 31 -38 34 -57 23 -27 -18 -41 -2 -16
18 19 15 19 15 -7 9 -21 -5 -28 -3 -28 9 0 8 -9 15 -19 15 -11 0 -23 5 -27 11
-4 8 -9 7 -15 -2 -6 -10 -9 -10 -9 -2 0 6 5 15 10 18 6 3 10 11 10 16 0 6 -4
7 -10 4 -5 -3 -10 -1 -10 5 0 8 -9 10 -25 6 -16 -4 -25 -2 -25 5 0 6 -7 8 -16
5 -10 -4 -21 4 -32 24 -9 16 -25 30 -34 30 -21 0 -24 16 -5 23 6 2 0 4 -15 4
-16 0 -28 -5 -28 -11 0 -6 -8 4 -16 22 -9 17 -20 32 -25 32 -5 0 -6 8 -2 18 3
9 2 14 -2 9 -11 -9 -91 103 -87 122 2 8 -2 12 -11 8 -8 -3 -14 0 -14 6 1 37
-5 57 -16 57 -13 0 -53 59 -49 73 1 4 -3 7 -9 7 -6 0 -9 6 -6 14 3 8 -3 22
-14 32 -10 9 -19 25 -19 35 0 10 -4 21 -10 24 -18 11 -10 -49 15 -110 13 -33
25 -70 25 -83 0 -12 16 -54 35 -92 19 -39 31 -70 25 -70 -5 0 -10 6 -10 13 0
7 -11 24 -25 39 -14 15 -25 32 -25 38 0 5 -5 10 -11 10 -6 0 -9 6 -6 14 6 15
-16 40 -26 30 -3 -3 -8 5 -12 18 -4 13 -11 25 -14 28 -3 3 -24 39 -45 81 -30
59 -37 83 -32 105 4 16 8 45 10 65 2 20 21 67 42 104 21 38 44 81 49 95 22 58
112 205 145 237 19 19 56 51 83 71 26 20 47 41 47 47 0 18 97 119 103 108 4
-5 9 -28 13 -49 6 -40 8 -42 66 -35 8 1 0 48 -13 72 -6 11 -6 20 1 24 10 6 2
35 -10 35 -5 0 -10 -10 -12 -22 l-3 -22 -16 24 c-20 31 -34 75 -22 67 4 -3 9
11 9 32 1 33 46 148 63 161 3 3 12 28 19 55 29 113 33 125 42 120 5 -3 6 -13
3 -22 -4 -11 -3 -14 5 -9 19 12 14 -5 -13 -39 -22 -30 -24 -45 -3 -45 4 0 8 7
8 16 0 9 8 23 18 30 19 15 33 18 30 7 0 -5 1 -15 5 -23 3 -8 8 -28 12 -43 4
-20 10 -27 20 -23 17 6 18 4 9 -18 -3 -9 -12 -16 -20 -16 -8 0 -11 -6 -8 -15
9 -22 28 -18 39 7 6 12 17 23 25 26 13 3 13 2 0 -7 -11 -9 -1 -11 43 -9 31 2
57 6 57 11 0 4 10 5 23 2 22 -6 79 27 67 38 -3 3 -27 8 -54 11 -54 5 -80 21
-53 32 27 10 112 -9 112 -25 0 -16 49 -36 69 -28 9 4 11 21 8 63 -3 41 -2 55
7 50 6 -4 11 -17 11 -29 1 -19 3 -17 18 11 10 18 21 29 26 25 4 -4 2 5 -4 21
-8 21 -7 32 1 42 6 8 8 14 3 14 -5 0 -2 5 6 10 13 9 13 10 0 10 -11 1 -8 6 9
20 30 26 36 25 80 -9z m3558 13 c-3 -3 -12 -4 -19 -1 -8 3 -5 6 6 6 11 1 17
-2 13 -5z m77 -9 c4 -10 -1 -15 -14 -15 -20 0 -26 11 -13 23 10 11 20 8 27 -8z
m-308 -42 c-4 -27 -8 -57 -10 -68 -3 -11 -5 -26 -5 -34 -1 -8 -4 -12 -7 -9 -6
7 17 158 24 158 3 0 2 -21 -2 -47z m421 -39 c0 -8 -9 -14 -19 -14 -11 0 -18 7
-18 19 0 14 5 18 18 14 10 -2 19 -11 19 -19z m-70 -16 c-3 -8 -6 -5 -6 6 -1
11 2 17 5 13 3 -3 4 -12 1 -19z m-52 2 c3 -5 2 -10 -4 -10 -5 0 -13 5 -16 10
-3 6 -2 10 4 10 5 0 13 -4 16 -10z m-3994 -71 c-19 -18 -25 -19 -32 -8 -6 10
-1 16 19 20 15 4 29 7 31 8 3 0 -6 -9 -18 -20z m4009 -9 c0 -5 -5 -10 -11 -10
-5 0 -7 5 -4 10 3 6 8 10 11 10 2 0 4 -4 4 -10z m-343 -32 c-3 -8 -6 -5 -6 6
-1 11 2 17 5 13 3 -3 4 -12 1 -19z m-3010 -25 c-14 -15 -30 -24 -34 -20 -4 4
6 19 22 32 37 32 47 22 12 -12z m179 -31 c8 -12 24 -22 35 -22 12 0 19 -5 17
-12 -7 -19 -55 -27 -91 -16 -31 10 -59 15 -84 17 -7 1 -13 5 -13 11 0 5 25 8
55 7 34 -1 51 1 45 8 -15 14 -12 33 5 31 9 -1 22 -12 31 -24z m140 -52 c13 0
24 -4 24 -9 0 -6 -12 -8 -27 -7 -16 2 -40 4 -55 5 -16 0 -28 6 -28 12 0 8 11
9 31 5 17 -3 42 -6 55 -6z m459 -60 c-9 -14 8 -13 23 2 9 9 12 9 12 0 0 -21
-30 -26 -48 -8 -15 15 -15 16 1 16 10 0 15 -4 12 -10z m95 -5 c-7 -8 -17 -15
-23 -15 -6 0 -2 7 9 15 25 19 30 19 14 0z m-290 -5 c0 -9 -40 -30 -56 -30 -13
0 -1 18 19 28 29 14 37 14 37 2z m320 -10 c0 -5 -5 -10 -11 -10 -5 0 -7 5 -4
10 3 6 8 10 11 10 2 0 4 -4 4 -10z m-45 -38 c-6 -7 -35 18 -35 31 0 5 9 2 20
-8 11 -10 18 -20 15 -23z m-95 18 c0 -5 -5 -10 -11 -10 -5 0 -7 5 -4 10 3 6 8
10 11 10 2 0 4 -4 4 -10z m70 -42 c0 -5 -4 -8 -10 -8 -5 0 -10 4 -10 9 0 5
-10 7 -22 3 -20 -5 -21 -4 -10 11 11 13 17 14 33 4 10 -6 19 -15 19 -19z m-82
-27 c-7 -11 -15 -18 -19 -15 -4 2 -9 -2 -11 -11 -2 -10 -7 -12 -18 -5 -13 9
-11 13 10 30 34 27 54 27 38 1z m-47 -62 c19 -18 26 -26 16 -19 -16 12 -20 11
-28 -1 -7 -11 -9 -10 -9 6 -1 17 -4 15 -16 -9 -13 -24 -14 -30 -2 -38 8 -5 2
-6 -17 -3 l-30 7 25 -21 c14 -11 20 -21 13 -21 -19 0 -93 43 -93 54 1 13 80
75 96 75 6 1 27 -13 45 -30z m-961 -69 c0 -14 -9 -12 -26 4 -20 21 -17 28 6
16 11 -6 20 -15 20 -20z m70 -32 c49 -28 50 -36 5 -34 -19 1 -35 -3 -35 -8 0
-22 -24 15 -25 39 -1 31 5 31 55 3z m-270 2 c13 -9 13 -11 0 -19 -8 -5 -18 -8
-22 -5 -9 6 -50 -14 -60 -30 -5 -8 -8 -7 -8 2 0 19 40 54 56 48 9 -3 12 -1 9
4 -8 13 6 13 25 0z m465 -130 c6 -10 -77 -80 -95 -80 -7 0 -3 9 10 20 22 19
23 21 5 34 -17 12 -17 13 1 20 17 6 17 9 4 19 -8 7 -16 20 -18 29 -2 14 4 13
43 -8 24 -14 47 -29 50 -34z m82 -46 c21 -14 40 -27 42 -30 8 -8 -80 -84 -97
-84 -20 0 -102 48 -102 61 0 5 8 16 18 24 80 66 84 67 139 29z m-650 -30 c-3
-3 -12 -4 -19 -1 -8 3 -5 6 6 6 11 1 17 -2 13 -5z m747 -39 c22 -17 14 -20
-13 -6 -11 6 -22 6 -32 -1 -11 -8 -11 -9 4 -4 9 3 17 1 17 -4 0 -13 -37 -13
-45 -1 -5 10 22 30 40 30 6 0 19 -6 29 -14z m-223 -26 c24 -18 46 -33 48 -35
3 -2 -6 -15 -18 -28 l-23 -24 22 -7 c12 -4 33 -4 48 0 26 6 26 6 8 -14 -10
-11 -15 -24 -11 -30 4 -7 0 -8 -11 -4 -12 4 -15 3 -10 -5 5 -8 0 -11 -16 -8
-13 3 -29 5 -35 5 -7 1 -13 10 -13 22 0 16 -4 19 -20 14 -20 -6 -110 41 -110
57 0 9 81 88 91 88 3 0 26 -14 50 -31z m147 -17 c-10 -2 -18 -10 -18 -18 0 -8
-7 -14 -15 -14 -8 0 -15 4 -15 9 0 13 44 40 55 33 6 -4 2 -8 -7 -10z m-48 -47
c11 -13 8 -15 -13 -15 -14 0 -32 -3 -41 -6 -25 -9 -19 12 7 24 30 14 33 14 47
-3z m-230 -25 c14 -11 29 -20 33 -20 5 0 15 -6 22 -14 12 -11 4 -13 -51 -9
-63 4 -64 3 -64 -21 0 -20 4 -24 17 -19 12 5 14 3 8 -7 -6 -10 -4 -12 8 -7 11
4 14 2 10 -9 -7 -18 -5 -18 -50 7 -64 35 -70 45 -42 68 27 23 39 26 39 11 0
-6 6 -5 14 2 10 9 11 17 4 26 -17 20 23 14 52 -8z m-130 -14 c-35 -24 -59 -22
-76 6 -7 11 -5 11 39 -7 7 -3 21 1 32 9 11 9 24 16 30 16 5 0 -6 -11 -25 -24z
m-470 -40 c0 -3 -4 -8 -10 -11 -5 -3 -10 -1 -10 4 0 6 5 11 10 11 6 0 10 -2
10 -4z m725 -17 c10 -15 -3 -25 -16 -12 -6 6 -18 9 -27 6 -10 -4 -13 -2 -8 5
9 15 43 16 51 1z m-242 -21 c42 -30 61 -48 48 -48 -5 0 -13 5 -16 11 -4 6 -14
8 -22 5 -8 -4 -11 -2 -7 5 11 18 -18 29 -56 23 -33 -6 -34 -5 -15 10 26 20 31
20 68 -6z m232 -8 c8 -13 -5 -13 -25 0 -13 8 -13 10 2 10 9 0 20 -4 23 -10z
m-640 -10 c3 -5 1 -10 -4 -10 -6 0 -11 5 -11 10 0 6 2 10 4 10 3 0 8 -4 11
-10z m-328 -356 c-3 -3 -12 -4 -19 -1 -8 3 -5 6 6 6 11 1 17 -2 13 -5z m541
-119 c-3 -3 -9 2 -12 12 -6 14 -5 15 5 6 7 -7 10 -15 7 -18z m56 10 c3 -8 12
-12 21 -9 8 3 15 1 15 -5 0 -16 -29 -14 -46 3 -16 17 -18 26 -5 26 5 0 11 -7
15 -15z m-90 -17 c-3 -4 -12 -8 -20 -8 -8 0 -14 4 -14 8 0 4 9 8 19 8 11 0 17
-4 15 -8z m-50 -26 c2 -4 -5 -9 -17 -9 -17 -2 -19 0 -7 7 18 12 18 12 24 2z
m-497 -174 c-3 -8 -6 -5 -6 6 -1 11 2 17 5 13 3 -3 4 -12 1 -19z m810 -204
c-3 -3 -12 -4 -19 -1 -8 3 -5 6 6 6 11 1 17 -2 13 -5z m-7 -44 c0 -5 -4 -10
-10 -10 -5 0 -10 5 -10 10 0 6 5 10 10 10 6 0 10 -4 10 -10z m-55 -50 c3 -5 2
-10 -4 -10 -5 0 -13 5 -16 10 -3 6 -2 10 4 10 5 0 13 -4 16 -10z"/>
<path d="M6445 7050 c-3 -5 -1 -10 4 -10 6 0 11 5 11 10 0 6 -2 10 -4 10 -3 0
-8 -4 -11 -10z"/>
<path d="M6402 7034 c-14 -16 -5 -18 17 -5 7 5 9 11 5 14 -5 3 -15 -1 -22 -9z"/>
<path d="M6229 7021 c8 -5 11 -16 8 -24 -4 -11 -1 -14 9 -10 19 7 18 29 -2 37
-23 9 -31 7 -15 -3z"/>
<path d="M6431 7011 c-8 -5 -10 -14 -6 -21 6 -9 10 -8 17 4 12 21 7 28 -11 17z"/>
<path d="M6190 6970 c0 -5 5 -10 10 -10 6 0 10 5 10 10 0 6 -4 10 -10 10 -5 0
-10 -4 -10 -10z"/>
<path d="M6290 6950 c0 -5 5 -10 11 -10 5 0 7 5 4 10 -3 6 -8 10 -11 10 -2 0
-4 -4 -4 -10z"/>
<path d="M6081 6917 c0 -10 -8 -31 -16 -47 -9 -17 -13 -30 -11 -30 11 0 37 62
33 78 -4 15 -5 15 -6 -1z"/>
<path d="M6125 6920 c-3 -5 -1 -10 4 -10 6 0 11 5 11 10 0 6 -2 10 -4 10 -3 0
-8 -4 -11 -10z"/>
<path d="M6471 6894 c0 -11 3 -14 6 -6 3 7 2 16 -1 19 -3 4 -6 -2 -5 -13z"/>
<path d="M6300 6891 c0 -6 4 -13 10 -16 6 -3 7 1 4 9 -7 18 -14 21 -14 7z"/>
<path d="M6100 6870 c0 -5 5 -10 11 -10 5 0 7 5 4 10 -3 6 -8 10 -11 10 -2 0
-4 -4 -4 -10z"/>
<path d="M6436 6835 c4 -8 7 -15 9 -15 2 0 5 7 9 15 3 9 0 15 -9 15 -9 0 -12
-6 -9 -15z"/>
<path d="M6170 6795 c0 -8 5 -15 10 -15 6 0 10 7 10 15 0 8 -4 15 -10 15 -5 0
-10 -7 -10 -15z"/>
<path d="M6130 6781 c0 -6 5 -13 10 -16 6 -3 10 1 10 9 0 9 -4 16 -10 16 -5 0
-10 -4 -10 -9z"/>
<path d="M6455 6730 c3 -5 8 -10 11 -10 2 0 4 5 4 10 0 6 -5 10 -11 10 -5 0
-7 -4 -4 -10z"/>
<path d="M6202 6610 c0 -14 2 -19 5 -12 2 6 2 18 0 25 -3 6 -5 1 -5 -13z"/>
<path d="M5892 6525 c-15 -32 -15 -55 -1 -55 6 0 8 8 4 19 -3 10 1 24 10 31
16 14 20 30 7 30 -5 0 -14 -11 -20 -25z"/>
<path d="M6315 6450 c-3 -5 -1 -10 4 -10 6 0 11 5 11 10 0 6 -2 10 -4 10 -3 0
-8 -4 -11 -10z"/>
<path d="M6236 6374 c-5 -14 -4 -15 9 -4 17 14 19 20 6 20 -5 0 -12 -7 -15
-16z"/>
<path d="M4990 6328 c0 -3 7 -19 15 -34 8 -16 15 -22 15 -14 -1 8 -7 24 -15
34 -8 11 -15 17 -15 14z"/>
<path d="M6265 6270 c-3 -5 -1 -10 4 -10 6 0 11 5 11 10 0 6 -2 10 -4 10 -3 0
-8 -4 -11 -10z"/>
<path d="M6260 6210 c0 -5 5 -10 10 -10 6 0 10 5 10 10 0 6 -4 10 -10 10 -5 0
-10 -4 -10 -10z"/>
<path d="M4775 6170 c-19 -8 -19 -9 3 -9 12 -1 22 4 22 9 0 6 -1 10 -2 9 -2 0
-12 -4 -23 -9z"/>
<path d="M7717 5153 c-7 -13 4 -83 14 -83 5 0 9 -7 9 -16 0 -14 3 -14 15 -4 8
7 15 20 15 29 0 14 -2 14 -10 1 -12 -20 -20 -10 -25 35 -6 41 -10 51 -18 38z"/>
<path d="M7691 5104 c0 -11 3 -14 6 -6 3 7 2 16 -1 19 -3 4 -6 -2 -5 -13z"/>
<path d="M7578 5083 c12 -2 22 -11 22 -19 0 -8 5 -12 10 -9 17 10 -9 35 -34
34 -20 -2 -20 -2 2 -6z"/>
<path d="M7647 5073 c-11 -11 34 -53 57 -53 15 0 17 -3 8 -12 -7 -7 -12 -16
-12 -22 0 -5 6 -2 13 7 8 12 16 14 27 7 13 -9 13 -11 0 -20 -12 -8 -11 -10 6
-10 17 0 20 5 16 25 -3 16 -11 25 -23 25 -13 0 -19 7 -19 24 0 29 -36 43 -43
17 -4 -14 -5 -14 -6 2 -1 17 -12 22 -24 10z"/>
<path d="M7767 5053 c-12 -12 -7 -22 8 -17 8 4 15 10 15 15 0 11 -14 12 -23 2z"/>
<path d="M7664 4975 c10 -7 15 -18 11 -24 -3 -6 -1 -11 4 -11 12 0 14 11 5 34
-3 9 -14 16 -23 16 -14 -1 -14 -2 3 -15z"/>
<path d="M7580 4956 c0 -8 5 -18 12 -22 7 -4 8 -3 4 4 -4 7 -3 12 3 12 5 0 11
-5 13 -12 2 -6 10 -8 17 -4 9 6 8 11 -6 22 -24 18 -43 18 -43 0z"/>
<path d="M7537 4944 c-8 -8 3 -34 14 -34 5 0 9 9 9 20 0 19 -11 26 -23 14z"/>
<path d="M7770 4934 c0 -8 5 -12 10 -9 6 4 8 11 5 16 -9 14 -15 11 -15 -7z"/>
<path d="M7585 4909 c-10 -15 3 -25 16 -12 7 7 7 13 1 17 -6 3 -14 1 -17 -5z"/>
<path d="M7650 4915 c0 -2 10 -10 23 -16 20 -11 21 -11 8 4 -13 16 -31 23 -31
12z"/>
<path d="M7945 4909 c-10 -15 3 -25 16 -12 7 7 7 13 1 17 -6 3 -14 1 -17 -5z"/>
<path d="M7620 4900 c0 -5 5 -10 10 -10 6 0 10 -9 10 -20 0 -11 5 -20 10 -20
14 0 12 22 -4 43 -15 19 -26 22 -26 7z"/>
<path d="M7770 4900 c0 -5 5 -10 11 -10 5 0 7 5 4 10 -3 6 -8 10 -11 10 -2 0
-4 -4 -4 -10z"/>
<path d="M7836 4893 c-6 -14 -5 -15 5 -6 7 7 10 15 7 18 -3 3 -9 -2 -12 -12z"/>
<path d="M7605 4860 c3 -5 8 -10 11 -10 2 0 4 5 4 10 0 6 -5 10 -11 10 -5 0
-7 -4 -4 -10z"/>
<path d="M7680 4859 c0 -5 5 -7 10 -4 6 3 10 8 10 11 0 2 -4 4 -10 4 -5 0 -10
-5 -10 -11z"/>
<path d="M7755 4854 c9 -9 18 -14 21 -11 9 9 -6 27 -22 27 -13 0 -13 -2 1 -16z"/>
<path d="M7800 4860 c0 -5 5 -10 10 -10 6 0 10 5 10 10 0 6 -4 10 -10 10 -5 0
-10 -4 -10 -10z"/>
<path d="M7834 4846 c-3 -14 -12 -27 -20 -30 -15 -6 -20 -36 -6 -36 9 0 27 33
37 68 4 12 4 22 1 22 -3 0 -8 -11 -12 -24z"/>
<path d="M7870 4840 c0 -5 7 -10 15 -10 25 0 17 -17 -15 -30 -30 -12 -44 -37
-14 -26 9 3 25 6 37 6 18 0 22 7 24 35 3 31 0 35 -22 35 -14 0 -25 -4 -25 -10z"/>
<path d="M7620 4815 c0 -8 5 -15 10 -15 6 0 10 7 10 15 0 8 -4 15 -10 15 -5 0
-10 -7 -10 -15z"/>
<path d="M7755 4810 c-3 -5 -2 -10 4 -10 5 0 13 5 16 10 3 6 2 10 -4 10 -5 0
-13 -4 -16 -10z"/>
<path d="M7660 4786 c0 -10 8 -16 22 -16 12 0 19 1 17 3 -2 1 -12 9 -21 16
-15 12 -18 11 -18 -3z"/>
<path d="M7621 4771 c-8 -6 -9 -11 -3 -15 6 -3 14 -1 17 5 9 14 2 20 -14 10z"/>
<path d="M7746 4771 c-3 -5 1 -12 10 -15 20 -8 29 -1 19 13 -8 13 -22 14 -29
2z"/>
<path d="M7675 4740 c3 -5 8 -10 11 -10 2 0 4 5 4 10 0 6 -5 10 -11 10 -5 0
-7 -4 -4 -10z"/>
<path d="M7725 4740 c-3 -5 1 -10 10 -10 9 0 13 5 10 10 -3 6 -8 10 -10 10 -2
0 -7 -4 -10 -10z"/>
<path d="M7570 4720 c0 -6 7 -13 15 -16 8 -4 15 -10 15 -15 0 -5 -7 -9 -15 -9
-23 0 -18 -14 10 -27 14 -6 25 -7 25 -2 0 5 -5 9 -10 9 -6 0 -8 10 -4 24 4 18
1 27 -15 36 -15 7 -21 7 -21 0z"/>
<path d="M7700 4710 c0 -5 5 -10 11 -10 5 0 7 5 4 10 -3 6 -8 10 -11 10 -2 0
-4 -4 -4 -10z"/>
<path d="M7630 4676 c0 -9 5 -16 10 -16 6 0 10 4 10 9 0 6 -4 13 -10 16 -5 3
-10 -1 -10 -9z"/>
<path d="M7700 4670 c0 -11 6 -20 14 -20 9 0 12 7 9 20 -3 11 -9 20 -14 20 -5
0 -9 -9 -9 -20z"/>
<path d="M7741 4624 c-1 -25 24 -51 34 -34 8 13 -3 32 -15 25 -5 -3 -11 3 -13
12 -4 15 -5 14 -6 -3z"/>
<path d="M7895 4630 c3 -5 11 -10 16 -10 6 0 7 5 4 10 -3 6 -11 10 -16 10 -6
0 -7 -4 -4 -10z"/>
<path d="M7610 4619 c0 -5 5 -7 10 -4 6 3 10 8 10 11 0 2 -4 4 -10 4 -5 0 -10
-5 -10 -11z"/>
<path d="M7633 4605 c-6 -14 -7 -27 -2 -31 5 -3 9 2 9 10 0 9 5 16 10 16 6 0
10 7 10 15 0 23 -14 18 -27 -10z"/>
<path d="M7818 4617 c-9 -6 -8 -7 5 -3 12 4 17 0 18 -17 0 -21 1 -21 9 -2 5
11 9 23 9 26 1 9 -27 7 -41 -4z"/>
<path d="M7892 4588 c5 -32 28 -36 26 -4 -1 14 -8 26 -16 26 -8 0 -12 -9 -10
-22z"/>
<path d="M7602 4565 c0 -16 2 -22 5 -12 2 9 2 23 0 30 -3 6 -5 -1 -5 -18z"/>
<path d="M7692 4570 c0 -14 2 -19 5 -12 2 6 2 18 0 25 -3 6 -5 1 -5 -13z"/>
<path d="M7644 4545 c-9 -14 -22 -25 -29 -25 -7 0 -18 -7 -25 -15 -15 -18 -9
-19 24 -4 20 9 29 9 41 -1 8 -7 18 -10 22 -6 4 3 -2 13 -13 20 -18 14 -18 15
0 35 11 12 14 21 8 21 -6 0 -19 -11 -28 -25z"/>
<path d="M7751 4554 c0 -11 3 -14 6 -6 3 7 2 16 -1 19 -3 4 -6 -2 -5 -13z"/>
<path d="M7935 4560 c3 -5 19 -10 36 -10 16 0 29 5 29 10 0 6 -16 10 -36 10
-21 0 -33 -4 -29 -10z"/>
<path d="M7836 4551 c-4 -5 3 -7 14 -4 23 6 26 13 6 13 -8 0 -17 -4 -20 -9z"/>
<path d="M7909 4536 c10 -11 9 -16 -4 -23 -15 -9 -15 -11 -1 -22 13 -11 16
-11 16 0 1 10 4 8 11 -3 15 -26 24 -22 26 12 2 24 -2 30 -17 30 -11 0 -20 5
-20 10 0 6 -5 10 -11 10 -8 0 -8 -4 0 -14z"/>
<path d="M7750 4521 c0 -6 -8 -11 -17 -11 -19 0 -63 -46 -63 -65 0 -7 19 6 42
29 l43 40 6 -30 7 -29 1 32 c0 17 -3 35 -9 38 -5 3 -10 1 -10 -4z"/>
<path d="M7806 4522 c-3 -6 -1 -14 5 -17 15 -10 25 3 12 16 -7 7 -13 7 -17 1z"/>
<path d="M7855 4510 c3 -5 10 -10 16 -10 5 0 9 5 9 10 0 6 -7 10 -16 10 -8 0
-12 -4 -9 -10z"/>
<path d="M7613 4465 c0 -8 6 -15 14 -15 7 0 13 7 13 15 0 8 -6 15 -13 15 -8 0
-14 -7 -14 -15z"/>
<path d="M7725 4460 c3 -6 -2 -13 -11 -17 -16 -6 -16 -7 2 -14 34 -13 48 -11
34 6 -6 8 -9 19 -5 25 3 5 -1 10 -10 10 -9 0 -13 -5 -10 -10z"/>
<path d="M7801 4427 c2 -1 13 -9 24 -17 19 -14 19 -14 6 3 -7 9 -18 17 -24 17
-6 0 -8 -1 -6 -3z"/>
<path d="M7630 4414 c0 -3 16 -12 36 -20 26 -11 34 -19 30 -31 -7 -17 10 -43
28 -43 6 0 4 5 -4 10 -9 6 -14 21 -12 40 3 24 0 30 -17 30 -11 0 -23 5 -26 10
-6 10 -35 14 -35 4z"/>
<path d="M7895 4400 c-3 -5 -1 -10 4 -10 6 0 11 5 11 10 0 6 -2 10 -4 10 -3 0
-8 -4 -11 -10z"/>
<path d="M7736 4383 c-4 -9 0 -23 9 -32 9 -9 15 -11 15 -4 0 7 -5 15 -10 18
-8 5 -7 11 1 21 7 8 7 14 1 14 -5 0 -13 -8 -16 -17z"/>
<path d="M7807 4379 c3 -10 9 -16 14 -13 13 8 11 21 -5 27 -10 4 -12 0 -9 -14z"/>
<path d="M7850 4385 c0 -8 5 -15 10 -15 6 0 10 7 10 15 0 8 -4 15 -10 15 -5 0
-10 -7 -10 -15z"/>
<path d="M7770 4381 c0 -6 5 -13 10 -16 6 -3 10 1 10 9 0 9 -4 16 -10 16 -5 0
-10 -4 -10 -9z"/>
<path d="M7849 4323 c-1 -4 0 -16 1 -27 1 -11 -3 -15 -9 -12 -6 4 -11 0 -11
-8 0 -9 -9 -16 -20 -16 -11 0 -20 -4 -20 -9 0 -5 12 -6 27 -2 29 8 61 65 43
76 -6 3 -11 3 -11 -2z"/>
<path d="M7740 4261 c-13 -26 -13 -31 5 -31 9 0 15 9 15 25 0 30 -6 32 -20 6z"/>
<path d="M7890 4260 c0 -5 5 -10 11 -10 5 0 7 5 4 10 -3 6 -8 10 -11 10 -2 0
-4 -4 -4 -10z"/>
<path d="M7857 4244 c-3 -4 -21 -10 -39 -14 -27 -6 -23 -7 23 -6 44 1 53 4 43
14 -14 14 -18 15 -27 6z"/>
<path d="M7928 4233 c7 -3 16 -2 19 1 4 3 -2 6 -13 5 -11 0 -14 -3 -6 -6z"/>
<path d="M7825 4190 c-16 -18 -16 -20 -2 -20 10 0 17 4 17 10 0 5 8 6 18 3 15
-6 15 -5 3 10 -17 21 -14 21 -36 -3z"/>
<path d="M7900 4193 c1 -14 27 -43 39 -43 16 0 13 17 -5 24 -8 3 -12 10 -9 16
3 5 -1 10 -9 10 -9 0 -16 -3 -16 -7z"/>
<path d="M7640 4171 c0 -12 5 -21 10 -21 6 0 10 6 10 14 0 8 -4 18 -10 21 -5
3 -10 -3 -10 -14z"/>
<path d="M7710 4180 c0 -5 5 -10 10 -10 6 0 10 5 10 10 0 6 -4 10 -10 10 -5 0
-10 -4 -10 -10z"/>
<path d="M7785 4170 c3 -5 8 -10 11 -10 2 0 4 5 4 10 0 6 -5 10 -11 10 -5 0
-7 -4 -4 -10z"/>
<path d="M7740 4160 c0 -5 5 -10 11 -10 6 0 9 -7 5 -15 -3 -8 -1 -25 4 -37 8
-21 9 -20 9 9 1 17 -2 38 -5 47 -7 18 -24 22 -24 6z"/>
<path d="M7805 4127 c-4 -10 -5 -21 -1 -24 10 -10 18 4 13 24 -4 17 -4 17 -12
0z"/>
<path d="M7900 4090 c0 -13 11 -13 30 0 12 8 11 10 -7 10 -13 0 -23 -4 -23
-10z"/>
<path d="M7785 4070 c-3 -5 3 -10 15 -10 12 0 18 5 15 10 -3 6 -10 10 -15 10
-5 0 -12 -4 -15 -10z"/>
<path d="M7932 4073 c-6 -3 -10 -9 -7 -13 3 -5 -4 -14 -15 -20 -23 -13 -27
-30 -5 -30 8 0 15 5 15 12 0 6 2 9 5 6 13 -13 -9 -38 -33 -38 -17 0 -23 -3
-16 -10 6 -6 20 -6 41 2 24 9 33 20 38 46 7 36 -1 53 -23 45z"/>
<path d="M7865 4060 c-3 -5 -4 -10 -1 -10 2 0 11 -3 20 -6 11 -4 16 -1 16 10
0 18 -25 22 -35 6z"/>
<path d="M8000 4060 c0 -5 5 -10 10 -10 6 0 10 5 10 10 0 6 -4 10 -10 10 -5 0
-10 -4 -10 -10z"/>
<path d="M7840 4024 c0 -8 5 -12 10 -9 6 3 10 10 10 16 0 5 -4 9 -10 9 -5 0
-10 -7 -10 -16z"/>
<path d="M4483 4876 c2 -6 26 -12 53 -14 59 -4 52 8 -11 18 -31 5 -45 3 -42
-4z"/>
<path d="M4088 4799 c-20 -11 -25 -43 -6 -37 9 3 33 49 25 48 -1 0 -10 -5 -19
-11z"/>
<path d="M4420 4800 c0 -5 5 -10 11 -10 5 0 7 5 4 10 -3 6 -8 10 -11 10 -2 0
-4 -4 -4 -10z"/>
<path d="M4645 4779 c-11 -17 1 -21 15 -4 8 9 8 15 2 15 -6 0 -14 -5 -17 -11z"/>
<path d="M4830 4750 c-9 -17 -8 -19 12 -11 26 9 36 31 14 31 -8 0 -20 -9 -26
-20z"/>
<path d="M4425 4740 c3 -5 8 -10 11 -10 2 0 4 5 4 10 0 6 -5 10 -11 10 -5 0
-7 -4 -4 -10z"/>
<path d="M4847 4695 c-8 -20 6 -27 34 -17 l23 9 -21 12 c-28 14 -30 14 -36 -4z"/>
<path d="M4835 4620 c3 -5 8 -10 11 -10 2 0 4 5 4 10 0 6 -5 10 -11 10 -5 0
-7 -4 -4 -10z"/>
<path d="M5030 4530 c0 -5 5 -10 10 -10 6 0 10 5 10 10 0 6 -4 10 -10 10 -5 0
-10 -4 -10 -10z"/>
<path d="M4850 4510 c0 -5 5 -10 10 -10 6 0 10 5 10 10 0 6 -4 10 -10 10 -5 0
-10 -4 -10 -10z"/>
<path d="M4843 4467 c2 -7 14 -14 26 -15 28 -4 20 13 -9 21 -14 3 -20 1 -17
-6z"/>
<path d="M4890 4429 c0 -5 5 -7 10 -4 6 3 10 8 10 11 0 2 -4 4 -10 4 -5 0 -10
-5 -10 -11z"/>
<path d="M4993 4413 c-21 -8 -15 -23 10 -23 13 0 29 -6 37 -12 7 -7 5 -1 -6
14 -20 29 -21 29 -41 21z"/>
<path d="M4890 4375 c7 -9 15 -13 17 -11 7 7 -7 26 -19 26 -6 0 -6 -6 2 -15z"/>
<path d="M4916 4309 c12 -12 28 -19 35 -17 8 3 -1 12 -21 22 l-35 17 21 -22z"/>
<path d="M4910 4269 c0 -6 5 -19 11 -30 7 -14 7 -24 0 -32 -5 -7 -6 -19 -2
-26 13 -20 22 45 11 74 -10 26 -20 33 -20 14z"/>
<path d="M5066 4183 c-4 -9 -4 -18 -2 -21 8 -7 36 6 36 17 0 16 -28 20 -34 4z"/>
<path d="M3698 4153 c7 -3 16 -2 19 1 4 3 -2 6 -13 5 -11 0 -14 -3 -6 -6z"/>
<path d="M5005 4150 c3 -5 13 -10 21 -10 8 0 12 5 9 10 -3 6 -13 10 -21 10 -8
0 -12 -4 -9 -10z"/>
<path d="M5090 4150 c0 -5 5 -10 10 -10 6 0 10 5 10 10 0 6 -4 10 -10 10 -5 0
-10 -4 -10 -10z"/>
<path d="M4990 4060 c6 -11 15 -20 20 -20 6 0 5 9 -2 20 -7 11 -16 20 -21 20
-4 0 -3 -9 3 -20z"/>
<path d="M3975 4060 c-3 -5 -1 -10 4 -10 6 0 11 5 11 10 0 6 -2 10 -4 10 -3 0
-8 -4 -11 -10z"/>
<path d="M4715 4020 c3 -5 11 -10 16 -10 6 0 7 5 4 10 -3 6 -11 10 -16 10 -6
0 -7 -4 -4 -10z"/>
<path d="M4955 4010 c3 -5 11 -10 16 -10 6 0 7 5 4 10 -3 6 -11 10 -16 10 -6
0 -7 -4 -4 -10z"/>
<path d="M3670 3975 c0 -8 7 -15 15 -15 8 0 15 7 15 15 0 8 -7 15 -15 15 -8 0
-15 -7 -15 -15z"/>
<path d="M5006 3955 c4 -9 15 -20 26 -26 20 -11 20 -11 2 15 -21 28 -37 34
-28 11z"/>
<path d="M4838 3913 c6 -2 18 -2 25 0 6 3 1 5 -13 5 -14 0 -19 -2 -12 -5z"/>
<path d="M3762 3881 c2 -7 7 -12 11 -12 12 1 9 15 -3 20 -7 2 -11 -2 -8 -8z"/>
<path d="M3960 3870 c0 -5 5 -10 10 -10 6 0 10 5 10 10 0 6 -4 10 -10 10 -5 0
-10 -4 -10 -10z"/>
<path d="M4200 3856 c0 -2 7 -6 15 -10 8 -3 15 -1 15 4 0 6 -7 10 -15 10 -8 0
-15 -2 -15 -4z"/>
<path d="M4710 3820 c19 -13 30 -13 30 0 0 6 -10 10 -22 10 -19 0 -20 -2 -8
-10z"/>
<path d="M3656 3803 c-11 -11 -6 -23 9 -23 8 0 15 4 15 9 0 13 -16 22 -24 14z"/>
<path d="M3840 3781 c0 -16 28 -20 34 -5 4 9 -1 14 -14 14 -11 0 -20 -4 -20
-9z"/>
<path d="M4065 3760 c3 -5 13 -10 21 -10 8 0 14 5 14 10 0 6 -9 10 -21 10 -11
0 -17 -4 -14 -10z"/>
<path d="M4325 3750 c3 -5 13 -10 21 -10 8 0 14 5 14 10 0 6 -9 10 -21 10 -11
0 -17 -4 -14 -10z"/>
<path d="M4520 3700 c0 -5 7 -10 15 -10 8 0 15 5 15 10 0 6 -7 10 -15 10 -8 0
-15 -4 -15 -10z"/>
<path d="M4208 3683 c-38 -6 -35 -16 9 -37 31 -15 34 -15 24 -2 -7 9 -11 23
-7 31 3 8 4 14 3 14 -1 -1 -14 -4 -29 -6z"/>
<path d="M4145 3590 c3 -5 8 -10 11 -10 2 0 4 5 4 10 0 6 -5 10 -11 10 -5 0
-7 -4 -4 -10z"/>
<path d="M7992 4648 c5 -15 28 -23 28 -10 0 5 -7 13 -16 16 -10 4 -14 1 -12
-6z"/>
<path d="M4050 3396 c0 -2 7 -6 15 -10 8 -3 15 -1 15 4 0 6 -7 10 -15 10 -8 0
-15 -2 -15 -4z"/>
<path d="M4365 3240 c-3 -5 -1 -10 4 -10 6 0 11 5 11 10 0 6 -2 10 -4 10 -3 0
-8 -4 -11 -10z"/>
<path d="M3826 3231 c-4 -7 -5 -15 -2 -18 9 -9 19 4 14 18 -4 11 -6 11 -12 0z"/>
<path d="M4056 3213 c-4 -4 19 -31 50 -59 l57 -52 -32 -16 c-17 -9 -31 -21
-31 -27 0 -6 13 -1 29 10 16 12 40 21 53 21 15 0 25 6 25 15 0 9 -9 15 -23 15
-12 0 -24 3 -26 8 -1 4 -20 20 -40 35 -21 15 -38 35 -38 43 0 15 -12 19 -24 7z"/>
<path d="M4293 3195 c6 -16 34 -17 40 -2 4 11 -1 14 -19 13 -13 0 -22 -5 -21
-11z"/>
<path d="M3566 3183 c-11 -11 -6 -23 9 -23 8 0 15 4 15 9 0 13 -16 22 -24 14z"/>
<path d="M3715 3140 c-3 -5 1 -10 9 -10 9 0 16 5 16 10 0 6 -4 10 -9 10 -6 0
-13 -4 -16 -10z"/>
<path d="M3515 3110 c3 -5 10 -10 16 -10 5 0 9 5 9 10 0 6 -7 10 -16 10 -8 0
-12 -4 -9 -10z"/>
<path d="M3920 3116 c0 -2 7 -6 15 -10 8 -3 15 -1 15 4 0 6 -7 10 -15 10 -8 0
-15 -2 -15 -4z"/>
<path d="M4427 3113 c-22 -6 -12 -23 14 -23 10 0 19 7 19 15 0 15 -2 16 -33 8z"/>
<path d="M3650 3065 c0 -8 5 -15 10 -15 6 0 10 7 10 15 0 8 -4 15 -10 15 -5 0
-10 -7 -10 -15z"/>
<path d="M3480 3057 c0 -8 7 -18 16 -21 11 -4 14 -1 12 11 -4 21 -28 30 -28
10z"/>
<path d="M3810 3032 c0 -4 9 -13 19 -19 16 -10 18 -9 14 8 -5 18 -33 28 -33
11z"/>
<path d="M4133 3028 c-13 -6 -23 -15 -23 -20 0 -13 9 -10 32 12 24 22 23 23
-9 8z"/>
<path d="M4280 3020 c9 -16 60 -34 60 -21 -1 15 -17 28 -42 33 -23 4 -26 3
-18 -12z"/>
<path d="M4818 3033 c-24 -6 -23 -23 1 -23 10 0 21 7 25 15 6 15 4 16 -26 8z"/>
<path d="M4550 3019 c0 -5 5 -9 10 -9 6 0 12 0 15 0 14 0 8 13 -7 16 -10 1
-18 -2 -18 -7z"/>
<path d="M3592 3008 c6 -18 28 -21 28 -4 0 9 -7 16 -16 16 -9 0 -14 -5 -12
-12z"/>
<path d="M4156 2993 c-6 -14 -5 -15 5 -6 7 7 10 15 7 18 -3 3 -9 -2 -12 -12z"/>
<path d="M4180 2985 c-6 -8 -10 -19 -8 -24 1 -5 11 2 21 15 19 26 8 34 -13 9z"/>
<path d="M3550 2946 c0 -9 7 -16 16 -16 9 0 14 5 12 12 -6 18 -28 21 -28 4z"/>
<path d="M3725 2950 c3 -5 10 -10 16 -10 5 0 9 5 9 10 0 6 -7 10 -16 10 -8 0
-12 -4 -9 -10z"/>
<path d="M4438 2943 c-24 -6 -23 -23 2 -23 11 0 20 7 20 15 0 8 -1 14 -2 14
-2 -1 -11 -3 -20 -6z"/>
<path d="M4680 2930 c0 -5 7 -10 15 -10 8 0 15 5 15 10 0 6 -7 10 -15 10 -8 0
-15 -4 -15 -10z"/>
<path d="M3530 2900 c0 -11 5 -20 10 -20 6 0 10 9 10 20 0 11 -4 20 -10 20 -5
0 -10 -9 -10 -20z"/>
<path d="M3672 2893 c2 -9 9 -18 16 -21 18 -6 15 25 -4 32 -11 4 -14 1 -12
-11z"/>
<path d="M3500 2879 c0 -5 5 -7 10 -4 6 3 10 8 10 11 0 2 -4 4 -10 4 -5 0 -10
-5 -10 -11z"/>
<path d="M3470 2861 c0 -5 7 -14 15 -21 8 -7 15 -20 15 -29 0 -17 -127 -145
-175 -177 -15 -10 -23 -20 -18 -21 18 -6 78 26 97 51 10 14 27 26 37 26 11 0
19 4 19 9 0 5 14 14 31 20 30 10 30 12 25 55 -4 28 -2 47 4 51 11 7 23 -18 20
-39 -1 -5 4 -13 12 -17 10 -7 9 -9 -5 -9 -10 0 -15 -5 -12 -11 4 -6 13 -8 20
-5 18 6 29 -25 13 -35 -10 -7 -10 -11 0 -21 9 -9 12 -9 12 5 0 9 7 17 16 17
15 0 15 2 0 23 -9 12 -19 30 -23 40 -3 9 -9 17 -14 17 -5 0 -8 3 -7 8 1 4 -3
22 -9 40 -12 33 -28 41 -36 20 -4 -10 -6 -10 -6 0 -1 13 -31 17 -31 3z"/>
<path d="M4895 2859 c-11 -17 1 -21 15 -4 8 9 8 15 2 15 -6 0 -14 -5 -17 -11z"/>
<path d="M4550 2850 c0 -5 9 -10 21 -10 11 0 17 5 14 10 -3 6 -13 10 -21 10
-8 0 -14 -4 -14 -10z"/>
<path d="M3620 2840 c0 -5 9 -14 19 -19 16 -9 18 -8 14 9 -5 20 -33 29 -33 10z"/>
<path d="M3578 2823 c7 -3 16 -2 19 1 4 3 -2 6 -13 5 -11 0 -14 -3 -6 -6z"/>
<path d="M3720 2821 c0 -5 5 -13 10 -16 6 -3 10 -2 10 4 0 5 -4 13 -10 16 -5
3 -10 2 -10 -4z"/>
<path d="M3603 2804 c-17 -18 -16 -44 1 -44 8 0 16 -12 18 -27 2 -14 8 -28 15
-30 7 -3 5 14 -7 46 -14 35 -16 51 -8 53 7 3 8 7 3 10 -6 3 -16 0 -22 -8z"/>
<path d="M3737 2783 c-8 -7 11 -33 24 -33 5 0 9 9 9 20 0 19 -20 27 -33 13z"/>
<path d="M3682 2746 c8 -10 -21 -66 -34 -66 -13 0 -8 -24 9 -45 13 -16 15 -17
10 -2 -8 22 12 67 30 67 19 0 16 25 -4 41 -10 7 -15 9 -11 5z"/>
<path d="M3670 2579 c0 -5 5 -7 10 -4 6 3 10 8 10 11 0 2 -4 4 -10 4 -5 0 -10
-5 -10 -11z"/>
<path d="M3978 2443 c7 -3 16 -2 19 1 4 3 -2 6 -13 5 -11 0 -14 -3 -6 -6z"/>
<path d="M3940 1639 c0 -5 5 -7 10 -4 6 3 10 8 10 11 0 2 -4 4 -10 4 -5 0 -10
-5 -10 -11z"/>
<path d="M4000 1619 c0 -7 -10 -9 -25 -5 -19 5 -25 2 -25 -9 0 -12 7 -14 28
-9 44 11 57 20 38 27 -9 4 -16 2 -16 -4z"/>
<path d="M3987 1533 c-3 -5 1 -16 8 -26 7 -10 15 -15 18 -10 3 5 -1 16 -8 26
-7 10 -15 15 -18 10z"/>
</g>
</svg>
